<?xml version="1.0" encoding="utf-8"?>
<!-- Generator: Adobe Illustrator 24.0.2, SVG Export Plug-In . SVG Version: 6.00 Build 0)  -->
<svg version="1.1" id="Calque_1" xmlns="http://www.w3.org/2000/svg" xmlns:xlink="http://www.w3.org/1999/xlink" x="0px" y="0px"
	 viewBox="0 0 200 200" style="enable-background:new 0 0 200 200;" xml:space="preserve">
<style type="text/css">
	.st0{fill:#333333;}
	.st1{opacity:0.4;fill:#333333;enable-background:new    ;}
</style>
<g>
	<g transform="translate(-10)">
		<g>
			<g transform="translate(0 77.003)">
				<path class="st0" d="M31-23.8l0.3-0.2c8.9-4.5,19.8-1,24.4,8c0,0.1,0.1,0.2,0.1,0.3l36.8,75.4c4.4,9.1,0.7,20-8.4,24.4l0,0
					c-9,4.4-20,0.7-24.4-8.4L22.8,0.5C18.4-8.5,22.1-19.3,31-23.8z"/>
				<path class="st1" d="M118-25.7L118-25.7c9.2,4.2,13.3,15,9.1,24.2L92.5,75c-4.1,9.2-15,13.3-24.2,9.1l0,0
					c-9.2-4.1-13.3-15-9.1-24.2l34.6-76.6C98-25.8,108.8-29.9,118-25.7z"/>
				<path class="st1" d="M136.6,83.4L136.6,83.4c-9.1-4.4-12.8-15.4-8.4-24.4L165-16.6c4.4-9.1,15.3-12.8,24.4-8.4l0,0
					c9.1,4.4,12.8,15.3,8.4,24.4L161,75C156.6,84,145.6,87.8,136.6,83.4z"/>
				<path class="st0" d="M173.4,7.9L173.4,7.9c-9.1-4.4-12.8-15.4-8.4-24.4l0,0c4.4-9.1,15.4-12.8,24.4-8.4l0,0
					c9.1,4.4,12.8,15.3,8.4,24.4l0,0C193.4,8.5,182.4,12.3,173.4,7.9z M152.3,84.1L152.3,84.1c-9.2,4.2-20,0.1-24.2-9.1L93.6-1.6
					c-4.1-9.2-0.1-20,9.1-24.2l0,0c9.2-4.1,20-0.1,24.2,9.1L161.4,60C165.6,69.2,161.5,80,152.3,84.1z"/>
			</g>
		</g>
	</g>
</g>
</svg>
