<svg width="1200" height="900" viewBox="0 0 1200 900" fill="none" xmlns="http://www.w3.org/2000/svg">
<path d="M152.394 74.3561L159.022 58.7691L165.526 74.3561H152.394ZM123.737 69.3841H115.083V56.6811H123.796C127.174 56.6811 129.933 59.5641 129.933 63.0011C129.933 66.5001 127.174 69.3841 123.737 69.3841ZM153.314 47.3521L137.678 83.8911L132.634 76.5031C137.115 74.1101 140.061 69.0181 140.061 63.0011C140.061 53.9181 133.678 47.3521 125.21 47.3521H105.018V89.0851H115.083V78.7131H122.447L128.706 89.0851H135.455H141.226H146.136L148.895 82.5781H169.025L171.726 89.0851H182.465L164.544 47.3521H153.314Z" fill="white"/>
<path d="M201.247 80.3699C193.945 80.3699 188.852 74.5409 188.852 67.9119C188.852 61.0389 193.945 55.7 201.247 55.7C206.524 55.7 210.393 58.2139 212.356 62.0209L220.886 57.049C217.142 50.79 210.147 46.6169 201.247 46.6169C188.174 46.6169 178.662 56.3119 178.662 67.9119C178.662 80.2459 188.174 89.8199 201.247 89.8199C210.085 89.8199 217.021 85.218 220.762 78.959L212.232 74.0499C210.206 77.7319 206.403 80.3699 201.247 80.3699Z" fill="white"/>
<path d="M242.245 80.3699C234.942 80.3699 229.85 74.5409 229.85 67.9119C229.85 61.0389 234.942 55.7 242.245 55.7C247.521 55.7 251.39 58.2139 253.354 62.0209L261.884 57.049C258.14 50.79 251.145 46.6169 242.245 46.6169C229.172 46.6169 219.66 56.3119 219.66 67.9119C219.66 80.2459 229.172 89.8199 242.245 89.8199C251.083 89.8199 258.018 85.218 261.76 78.959L253.23 74.0499C251.204 77.7319 247.4 80.3699 242.245 80.3699Z" fill="white"/>
<path d="M281.524 80.493C274.713 80.493 269.188 75.03 269.188 68.218C269.188 61.469 274.713 56.006 281.524 56.006C288.214 56.006 293.737 61.469 293.737 68.218C293.737 75.03 288.214 80.493 281.524 80.493ZM333.077 67.665C333.077 75.708 329.149 80.493 322.892 80.493C316.509 80.493 313.072 75.708 313.072 67.665V47.352H303.007V66.709C302.224 55.558 292.863 46.615 281.524 46.615C269.557 46.615 259.983 56.373 259.983 68.218C259.983 80.126 269.557 89.822 281.524 89.822C293.055 89.822 302.548 80.63 303.041 69.158C303.606 82.074 311.481 89.822 322.892 89.822C334.55 89.822 343.267 81.475 343.267 67.665V47.352H333.077V67.665Z" fill="white"/>
<path d="M364.625 69.385H355.969V56.682H364.686C368.062 56.682 370.823 59.565 370.823 63.002C370.823 66.501 368.062 69.385 364.625 69.385ZM380.947 63.002C380.947 53.919 374.565 47.353 366.098 47.353H345.904V89.086H355.969V78.714H363.334L369.596 89.086H382.116L373.524 76.504C378.002 74.111 380.947 69.015 380.947 63.002Z" fill="white"/>
<path d="M404.026 55.699C409.304 55.699 413.17 58.216 415.134 62.02L423.665 57.048C419.919 50.789 412.925 46.616 404.026 46.616C390.951 46.616 381.441 56.311 381.441 67.911C381.441 80.248 390.951 89.822 404.026 89.822C412.863 89.822 419.799 85.217 423.54 78.958L415.009 74.049C412.986 77.731 409.181 80.369 404.026 80.369C396.723 80.369 391.629 74.54 391.629 67.911C391.629 61.038 396.723 55.699 404.026 55.699Z" fill="white"/>
<path d="M425.693 89.0851H435.758V47.3521H425.693V89.0851Z" fill="white"/>
<path d="M182.464 104.459H105.018V94.394H182.464V104.459Z" fill="white"/>
<path d="M182.464 41.598H105.018V31.533H182.464V41.598Z" fill="white"/>
<path d="M48.378 60.811C47.537 60.811 45.491 61.112 44.827 61.894L41.518 77.18C41.397 77.661 41.338 78.146 41.338 78.565C41.338 80.312 42.359 81.337 44.526 81.337C48.44 81.337 51.57 72.909 51.57 66.591C51.57 63.639 50.545 60.811 48.378 60.811ZM39.59 45.885L48.499 44.684L45.609 58.222C48.077 56.72 49.341 56.539 50.545 56.539C54.758 56.539 57.648 59.187 57.648 66.83C57.648 73.871 53.913 87.173 41.154 87.173C35.619 87.173 32.729 84.283 32.729 79.468C32.729 78.447 32.85 77.301 33.151 76.038L39.59 45.885Z" fill="white"/>
<path d="M67.887 96.5C69.091 96.5 70.656 95.357 71.438 91.806L72.161 88.254C68.368 89.518 65.481 91.262 65.481 94.516C65.481 95.357 66.564 96.5 67.887 96.5ZM72.642 56.72L68.309 77.181C68.187 77.662 68.129 78.206 68.129 78.687C68.129 80.068 68.551 81.335 69.932 81.335C72.279 81.335 73.844 79.047 74.747 76.039L78.842 56.72H87.568L80.226 91.626C78.419 100.234 73.245 101.858 69.271 101.858C65.599 101.858 62.168 99.269 62.168 95.357C62.168 89.76 66.865 88.015 72.58 86.33L73.182 83.682C70.597 86.631 67.887 87.171 65.841 87.171C62.23 87.171 59.402 85.004 59.402 79.95C59.402 78.808 59.582 77.482 59.884 76.039L63.975 56.72H72.642Z" fill="white"/>
</svg>
