<?xml version="1.0" encoding="UTF-8" standalone="no"?><!-- Generator: Gravit.io --><svg xmlns="http://www.w3.org/2000/svg" xmlns:xlink="http://www.w3.org/1999/xlink" style="isolation:isolate" viewBox="573 385 1200 900" width="1200pt" height="900pt"><defs><clipPath id="_clipPath_cCXU93ZYJORzLdvfNmxng7AkhNBEiO7T"><rect x="573" y="385" width="1200" height="900"/></clipPath></defs><g clip-path="url(#_clipPath_cCXU93ZYJORzLdvfNmxng7AkhNBEiO7T)"><rect x="573" y="385" width="1200" height="900" style="fill:rgb(181,126,126)" fill-opacity="0"/><g><path d=" M 573 385 L 1773 385 L 1773 1285 L 573 1285 L 573 385 Z " fill="none"/><g><path d=" M 725.394 459.356 L 732.022 443.769 L 738.526 459.356 L 725.394 459.356 Z  M 696.737 454.384 L 688.083 454.384 L 688.083 441.681 L 696.796 441.681 C 700.174 441.681 702.933 444.564 702.933 448.001 C 702.933 451.5 700.174 454.384 696.737 454.384 L 696.737 454.384 Z  M 726.314 432.352 L 710.678 468.891 L 705.634 461.503 C 710.115 459.11 713.061 454.018 713.061 448.001 C 713.061 438.918 706.678 432.352 698.21 432.352 L 678.018 432.352 L 678.018 474.085 L 688.083 474.085 L 688.083 463.713 L 695.447 463.713 L 701.706 474.085 L 708.455 474.085 L 714.226 474.085 L 719.136 474.085 L 721.895 467.578 L 742.025 467.578 L 744.726 474.085 L 755.465 474.085 L 737.544 432.352 L 726.314 432.352 Z " fill="rgb(255,255,255)"/><path d=" M 774.247 465.37 C 766.945 465.37 761.852 459.541 761.852 452.912 C 761.852 446.039 766.945 440.7 774.247 440.7 C 779.524 440.7 783.393 443.214 785.356 447.021 L 793.886 442.049 C 790.142 435.79 783.147 431.617 774.247 431.617 C 761.174 431.617 751.662 441.312 751.662 452.912 C 751.662 465.246 761.174 474.82 774.247 474.82 C 783.085 474.82 790.021 470.218 793.762 463.959 L 785.232 459.05 C 783.206 462.732 779.403 465.37 774.247 465.37 Z " fill="rgb(255,255,255)"/><path d=" M 815.245 465.37 C 807.942 465.37 802.85 459.541 802.85 452.912 C 802.85 446.039 807.942 440.7 815.245 440.7 C 820.521 440.7 824.39 443.214 826.354 447.021 L 834.884 442.049 C 831.14 435.79 824.145 431.617 815.245 431.617 C 802.172 431.617 792.66 441.312 792.66 452.912 C 792.66 465.246 802.172 474.82 815.245 474.82 C 824.083 474.82 831.018 470.218 834.76 463.959 L 826.23 459.05 C 824.204 462.732 820.4 465.37 815.245 465.37 Z " fill="rgb(255,255,255)"/><path d=" M 854.524 465.493 C 847.713 465.493 842.188 460.03 842.188 453.218 C 842.188 446.469 847.713 441.006 854.524 441.006 C 861.214 441.006 866.737 446.469 866.737 453.218 C 866.737 460.03 861.214 465.493 854.524 465.493 Z  M 906.077 452.665 C 906.077 460.708 902.149 465.493 895.892 465.493 C 889.509 465.493 886.072 460.708 886.072 452.665 L 886.072 432.352 L 876.007 432.352 L 876.007 451.709 C 875.224 440.558 865.863 431.615 854.524 431.615 C 842.557 431.615 832.983 441.373 832.983 453.218 C 832.983 465.126 842.557 474.822 854.524 474.822 C 866.055 474.822 875.548 465.63 876.041 454.158 C 876.606 467.074 884.481 474.822 895.892 474.822 C 907.55 474.822 916.267 466.475 916.267 452.665 L 916.267 432.352 L 906.077 432.352 L 906.077 452.665 Z " fill="rgb(255,255,255)"/><path d=" M 937.625 454.385 L 928.969 454.385 L 928.969 441.682 L 937.686 441.682 C 941.062 441.682 943.823 444.565 943.823 448.002 C 943.823 451.501 941.062 454.385 937.625 454.385 Z  M 953.947 448.002 C 953.947 438.919 947.565 432.353 939.098 432.353 L 918.904 432.353 L 918.904 474.086 L 928.969 474.086 L 928.969 463.714 L 936.334 463.714 L 942.596 474.086 L 955.116 474.086 L 946.524 461.504 C 951.002 459.111 953.947 454.015 953.947 448.002 Z " fill="rgb(255,255,255)"/><path d=" M 977.026 440.699 C 982.304 440.699 986.17 443.216 988.134 447.02 L 996.665 442.048 C 992.919 435.789 985.925 431.616 977.026 431.616 C 963.951 431.616 954.441 441.311 954.441 452.911 C 954.441 465.248 963.951 474.822 977.026 474.822 C 985.863 474.822 992.799 470.217 996.54 463.958 L 988.009 459.049 C 985.986 462.731 982.181 465.369 977.026 465.369 C 969.723 465.369 964.629 459.54 964.629 452.911 C 964.629 446.038 969.723 440.699 977.026 440.699 Z " fill="rgb(255,255,255)"/><path d=" M 998.693 474.085 L 1008.758 474.085 L 1008.758 432.352 L 998.693 432.352 L 998.693 474.085 Z " fill="rgb(255,255,255)"/><path d=" M 755.464 489.459 L 678.018 489.459 L 678.018 479.394 L 755.464 479.394 L 755.464 489.459 Z " fill="rgb(255,255,255)"/><path d=" M 755.464 426.598 L 678.018 426.598 L 678.018 416.533 L 755.464 416.533 L 755.464 426.598 Z " fill="rgb(255,255,255)"/><path d=" M 621.378 445.811 C 620.537 445.811 618.491 446.112 617.827 446.894 L 614.518 462.18 C 614.397 462.661 614.338 463.146 614.338 463.565 C 614.338 465.312 615.359 466.337 617.526 466.337 C 621.44 466.337 624.57 457.909 624.57 451.591 C 624.57 448.639 623.545 445.811 621.378 445.811 Z  M 612.59 430.885 L 621.499 429.684 L 618.609 443.222 C 621.077 441.72 622.341 441.539 623.545 441.539 C 627.758 441.539 630.648 444.187 630.648 451.83 C 630.648 458.871 626.913 472.173 614.154 472.173 C 608.619 472.173 605.729 469.283 605.729 464.468 C 605.729 463.447 605.85 462.301 606.151 461.038 L 612.59 430.885 Z " fill="rgb(255,255,255)"/><path d=" M 640.887 481.5 C 642.091 481.5 643.656 480.357 644.438 476.806 L 645.161 473.254 C 641.368 474.518 638.481 476.262 638.481 479.516 C 638.481 480.357 639.564 481.5 640.887 481.5 Z  M 645.642 441.72 L 641.309 462.181 C 641.187 462.662 641.129 463.206 641.129 463.687 C 641.129 465.068 641.551 466.335 642.932 466.335 C 645.279 466.335 646.844 464.047 647.747 461.039 L 651.842 441.72 L 660.568 441.72 L 653.226 476.626 C 651.419 485.234 646.245 486.858 642.271 486.858 C 638.599 486.858 635.168 484.269 635.168 480.357 C 635.168 474.76 639.865 473.015 645.58 471.33 L 646.182 468.682 C 643.597 471.631 640.887 472.171 638.841 472.171 C 635.23 472.171 632.402 470.004 632.402 464.95 C 632.402 463.808 632.582 462.482 632.884 461.039 L 636.975 441.72 L 645.642 441.72 Z " fill="rgb(255,255,255)"/></g></g></g></svg>