<?xml version="1.0" encoding="iso-8859-1"?>
<!-- Generator: Adobe Illustrator 19.0.0, SVG Export Plug-In . SVG Version: 6.00 Build 0)  -->
<svg version="1.1" id="Capa_1" xmlns="http://www.w3.org/2000/svg" xmlns:xlink="http://www.w3.org/1999/xlink" x="0px" y="0px"
	 viewBox="0 0 431.786 431.786" style="enable-background:new 0 0 431.786 431.786;" xml:space="preserve">
<g>
	<path d="M351.839,184c-8.322,0-16.35,1.282-23.9,3.652l-40.662-94.838c-0.112-0.268-0.239-0.528-0.378-0.781
		c-0.05-0.091-0.107-0.174-0.159-0.262c-0.08-0.132-0.157-0.265-0.244-0.392c-0.086-0.127-0.181-0.245-0.273-0.366
		c-0.063-0.082-0.123-0.166-0.189-0.245c-0.108-0.129-0.222-0.25-0.337-0.371c-0.062-0.065-0.121-0.133-0.185-0.197
		c-0.115-0.113-0.235-0.218-0.355-0.323c-0.076-0.066-0.149-0.135-0.227-0.198c-0.109-0.088-0.223-0.169-0.336-0.251
		c-0.1-0.073-0.198-0.146-0.301-0.214c-0.096-0.063-0.195-0.119-0.293-0.178c-0.127-0.077-0.254-0.153-0.386-0.223
		c-0.081-0.042-0.164-0.079-0.246-0.118c-0.153-0.074-0.305-0.147-0.463-0.211c-0.074-0.03-0.149-0.054-0.224-0.082
		c-0.166-0.062-0.333-0.123-0.504-0.174c-0.086-0.026-0.174-0.044-0.26-0.067c-0.16-0.042-0.319-0.085-0.483-0.117
		c-0.132-0.026-0.266-0.042-0.4-0.061c-0.12-0.017-0.238-0.039-0.36-0.051c-0.237-0.023-0.475-0.034-0.714-0.036
		c-0.022,0-0.043-0.003-0.066-0.003h-0.01c-0.02,0-0.04,0-0.06,0h-21.93c-4.418,0-8,3.582-8,8s3.582,8,8,8h16.726l16.571,38.65
		l-53.084,41.51c-7.531,5.348-14.594,7.84-22.213,7.84h-16c-4.418,0-8,3.582-8,8s3.582,8,8,8h16
		c11.011,0,21.363-3.571,31.649-10.918c0.095-0.067,0.188-0.137,0.278-0.208l49.891-39.013l4.597,10.722l-89.777,74.983
		c-3.648-2.258-7.944-3.565-12.541-3.565c-1.455,0-2.878,0.138-4.262,0.388l-61.24-128.388h17.404c4.418,0,8-3.582,8-8s-3.582-8-8-8
		h-39.257c-2.253,0-4.129-1.023-5.578-3.041c-2.577-3.588-7.574-4.408-11.164-1.833c-3.589,2.577-4.41,7.575-1.833,11.165
		c4.43,6.17,11.2,9.709,18.575,9.709h4.126l11.247,23.58l-23.244,52.491C96.947,185.404,88.61,184,79.947,184
		C35.864,184,0,219.864,0,263.947s35.864,79.946,79.947,79.946c41.401,0,75.547-31.634,79.549-72h18.009
		c3.325,9.205,12.149,15.803,22.486,15.803c13.179,0,23.901-10.722,23.901-23.901c0-2.755-0.474-5.399-1.335-7.864l86.332-72.107
		l4.348,10.142c-24.628,13.639-41.345,39.89-41.345,69.981c0,44.083,35.863,79.946,79.946,79.946s79.946-35.863,79.946-79.946
		S395.922,184,351.839,184z M137.084,154.497l44.739,93.793c-1.898,2.221-3.397,4.792-4.384,7.602h-17.951
		c-2.647-26.34-18.142-48.931-40.096-61.441L137.084,154.497z M143.368,255.893H92.185l20.696-46.737
		C129.266,219.042,140.864,236.069,143.368,255.893z M79.947,327.893c-35.26,0-63.947-28.687-63.947-63.946S44.687,200,79.947,200
		c6.359,0,12.5,0.946,18.301,2.682l-25.67,57.971c-1.096,2.475-0.866,5.335,0.61,7.604c1.476,2.268,3.999,3.636,6.705,3.636h63.489
		C139.454,303.414,112.515,327.893,79.947,327.893z M199.992,271.696c-4.357,0-7.901-3.545-7.901-7.901s3.544-7.901,7.901-7.901
		s7.901,3.545,7.901,7.901S204.349,271.696,199.992,271.696z M351.839,327.893c-35.26,0-63.946-28.687-63.946-63.946
		c0-23.5,12.752-44.067,31.691-55.181l25.01,58.333c1.3,3.033,4.253,4.85,7.356,4.85c1.052,0,2.121-0.209,3.148-0.649
		c4.061-1.741,5.941-6.444,4.2-10.505l-25.008-58.326c5.58-1.595,11.462-2.468,17.548-2.468c35.26,0,63.946,28.687,63.946,63.946
		S387.099,327.893,351.839,327.893z"/>
	<path d="M335.893,175.893h8c4.418,0,8-3.582,8-8s-3.582-8-8-8h-8c-4.418,0-8,3.582-8,8S331.475,175.893,335.893,175.893z"/>
</g>
<g>
</g>
<g>
</g>
<g>
</g>
<g>
</g>
<g>
</g>
<g>
</g>
<g>
</g>
<g>
</g>
<g>
</g>
<g>
</g>
<g>
</g>
<g>
</g>
<g>
</g>
<g>
</g>
<g>
</g>
</svg>
