<?xml version="1.0" encoding="iso-8859-1"?>
<!-- Generator: Adobe Illustrator 19.0.0, SVG Export Plug-In . SVG Version: 6.00 Build 0)  -->
<svg version="1.1" id="Capa_1" xmlns="http://www.w3.org/2000/svg" xmlns:xlink="http://www.w3.org/1999/xlink" x="0px" y="0px"
	 viewBox="0 0 432 432" style="enable-background:new 0 0 432 432;" xml:space="preserve">
<path d="M368.735,63.265c-20.618-20.617-44.672-36.545-70.868-47.266c-0.56-0.31-1.164-0.551-1.801-0.72
	C270.932,5.258,243.872,0,216,0C158.305,0,104.063,22.468,63.265,63.265C22.468,104.062,0,158.304,0,216
	s22.468,111.938,63.265,152.735C104.063,409.532,158.305,432,216,432s111.938-22.468,152.735-63.265
	C409.532,327.938,432,273.696,432,216S409.532,104.062,368.735,63.265z M264.618,21.988c-19.32,9.186-37.823,25.25-46.543,35.777
	c-7.729-2.643-16.176-4.096-25.038-4.096c-4.468,0-8.998,0.372-13.465,1.106c-6.347,1.043-12.443,2.799-18.18,5.172
	c-5.093-6.48-14.636-17.364-27.357-26.369C159.062,22.289,186.81,16,216,16C232.764,16,249.048,18.085,264.618,21.988z
	 M196.433,157.399c-3.612,0.593-7.271,0.895-10.872,0.895c-25.608,0-46.646-14.921-50.022-35.479
	c-1.86-11.32,1.78-22.938,10.249-32.715c4.396-5.073,9.804-9.339,15.931-12.641c0.549-0.209,1.088-0.461,1.597-0.801
	c0.027-0.018,0.051-0.039,0.077-0.057c5.75-2.877,12.079-4.936,18.773-6.036c3.612-0.593,7.27-0.894,10.871-0.894
	c25.608,0,46.646,14.921,50.023,35.479c1.86,11.32-1.78,22.938-10.249,32.715C223.979,148.058,211.061,154.996,196.433,157.399z
	 M117.484,42.001c13.218,7.427,23.727,18.598,29.592,25.706c-4.974,3.431-9.483,7.416-13.381,11.916
	c-7.553,8.719-12.269,18.63-13.941,28.912c-12.344,2.301-35.108,8.415-56.661,19.203c-14.95,7.482-27.374,16.182-37.125,25.903
	C41.61,106.09,74.629,66.36,117.484,42.001z M316.91,388.613c-6.978-48.039-35.573-115.48-52.775-152.951
	c-1.844-4.016-6.594-5.774-10.608-3.933c-4.016,1.843-5.776,6.593-3.933,10.608c39.75,86.585,49.885,132.97,52.214,154.295
	C275.79,409.042,246.694,416,216,416c-39.221,0-75.836-11.357-106.745-30.943c-8.701-25.603-12.709-70.914,14.347-144.289
	c1.528-4.146-0.593-8.745-4.738-10.273c-4.146-1.53-8.745,0.593-10.273,4.738c-13.981,37.917-27.401,89.734-19.455,135.266
	C44.509,333.787,16,278.161,16,216c0-3.589,0.1-7.156,0.288-10.699c0.302-0.668,0.518-1.387,0.629-2.149
	c7.385-50.737,76.124-72.897,102.75-78.349c0.031,0.202,0.048,0.403,0.082,0.605c2.414,14.692,11.031,27.285,23.43,36.013
	c-7.493,12.735-15.488,28.378-22.487,44.084c-1.798,4.036,0.016,8.765,4.051,10.563c1.059,0.472,2.164,0.695,3.252,0.695
	c3.063,0,5.985-1.768,7.313-4.746c6.868-15.412,14.696-30.712,21.973-43.015c8.582,3.402,18.163,5.29,28.28,5.29
	c4.468,0,8.998-0.372,13.466-1.106c4.767-0.783,9.392-1.969,13.833-3.512c5.709,9.81,13.516,24.582,21.581,40.874
	c1.396,2.819,4.229,4.453,7.176,4.453c1.192,0,2.402-0.268,3.543-0.832c3.96-1.96,5.581-6.759,3.621-10.719
	c-7.856-15.871-15.524-30.414-21.352-40.545c6.622-3.959,12.532-8.859,17.477-14.567c8.489-9.799,13.401-21.104,14.422-32.75
	c8.053,0.785,21.373,2.506,37.322,6.203c0.608,0.141,1.215,0.208,1.813,0.208c3.639,0,6.93-2.499,7.786-6.195
	c0.998-4.304-1.683-8.603-5.986-9.6c-18.597-4.311-33.667-6.078-42.04-6.79c-3.264-14.25-12.438-26.317-25.187-34.475
	c4.779-5.104,12.32-11.924,21.305-18.289c14.475-10.256,27.946-15.919,37.356-15.76c57.297,23.517,101.342,72.886,117.545,133.519
	c-18.68-21.192-45.604-38.125-79.638-49.827c-4.18-1.438-8.73,0.785-10.167,4.964c-1.437,4.178,0.786,8.73,4.964,10.167
	c32.074,11.027,73.935,32.88,91.216,74.362c0.006,0.015,0.016,0.028,0.022,0.043c0.232,3.932,0.363,7.891,0.363,11.88
	C416,289.499,376.141,353.854,316.91,388.613z"/>
<g>
</g>
<g>
</g>
<g>
</g>
<g>
</g>
<g>
</g>
<g>
</g>
<g>
</g>
<g>
</g>
<g>
</g>
<g>
</g>
<g>
</g>
<g>
</g>
<g>
</g>
<g>
</g>
<g>
</g>
</svg>
