<?xml version="1.0" encoding="iso-8859-1"?>
<!-- Generator: Adobe Illustrator 19.0.0, SVG Export Plug-In . SVG Version: 6.00 Build 0)  -->
<svg version="1.1" id="Capa_1" xmlns="http://www.w3.org/2000/svg" xmlns:xlink="http://www.w3.org/1999/xlink" x="0px" y="0px"
	 viewBox="0 0 455.003 455.003" style="enable-background:new 0 0 455.003 455.003;" xml:space="preserve">
<g>
	<path d="M428.969,392.909l-77.829-20.854l77.829-20.854c2.049-0.549,3.796-1.89,4.857-3.728s1.348-4.021,0.799-6.071
		l-12.423-46.364c-1.144-4.268-5.526-6.799-9.798-5.657l-184.903,49.545L42.598,289.381c-4.267-1.141-8.654,1.39-9.798,5.657
		l-12.423,46.364c-0.549,2.05-0.262,4.233,0.799,6.071s2.808,3.178,4.858,3.728l77.829,20.854l-77.829,20.854
		c-2.049,0.549-3.796,1.89-4.857,3.728s-1.348,4.021-0.799,6.07L32.8,449.071c0.958,3.574,4.19,5.931,7.723,5.931
		c0.685,0,1.382-0.089,2.076-0.274l184.903-49.545l184.903,49.545c0.694,0.186,1.39,0.274,2.076,0.274
		c3.532,0,6.765-2.357,7.723-5.931l12.423-46.364c0.549-2.05,0.262-4.233-0.799-6.071S431.018,393.458,428.969,392.909z
		 M37.902,337.816l8.282-30.91l150.407,40.302l-61.819,16.564L37.902,337.816z M37.902,406.293l370.916-99.387l8.282,30.91
		L46.184,437.203L37.902,406.293z M408.818,437.203l-150.407-40.302l61.819-16.564l96.87,25.956L408.818,437.203z"/>
	<path d="M227.501,312.001c66.168,0,120-53.832,120-120c0-39.634-15.341-80.219-45.596-120.627
		c-2.647-3.536-7.661-4.256-11.199-1.609c-3.537,2.648-4.257,7.662-1.609,11.199c28.137,37.579,42.404,74.937,42.404,111.038
		c0,57.346-46.654,104-104,104s-104-46.654-104-104c0-28.151,9.344-72.761,53.859-125.415c27.048-31.993,54.532-51.89,54.803-52.085
		c3.59-2.575,4.413-7.573,1.838-11.163c-2.575-3.591-7.574-4.413-11.163-1.838c-1.176,0.843-29.128,21.043-57.441,54.454
		c-37.876,44.696-57.896,91.741-57.896,136.047C107.501,258.169,161.333,312.001,227.501,312.001z"/>
	<path d="M269.584,57.401c1.579,1.735,3.746,2.617,5.92,2.617c1.921,0,3.848-0.688,5.381-2.082
		c3.268-2.973,3.508-8.033,0.535-11.301c-6.012-6.609-12.411-13.147-19.018-19.431c-3.202-3.045-8.266-2.918-11.31,0.284
		c-3.045,3.201-2.918,8.265,0.284,11.31C257.704,44.817,263.83,51.075,269.584,57.401z"/>
	<path d="M222.839,113.5c-0.62,0.444-15.352,11.09-30.198,28.609c-20.054,23.665-30.653,48.692-30.653,72.378
		c0,36.125,29.389,65.514,65.514,65.514s65.514-29.389,65.514-65.514c0-4.418-3.582-8-8-8s-8,3.582-8,8
		c0,27.302-22.212,49.514-49.514,49.514s-49.514-22.212-49.514-49.514c0-39.882,36.391-73.495,49.524-84.324
		c2.534,2.08,5.923,4.998,9.73,8.627c3.197,3.048,8.261,2.928,11.311-0.27c3.049-3.198,2.928-8.262-0.27-11.311
		c-8.996-8.577-15.832-13.504-16.119-13.71C229.377,111.501,225.626,111.501,222.839,113.5z"/>
	<path d="M276.298,161.131c-1.828-2.945-3.823-5.913-5.929-8.822c-2.59-3.578-7.591-4.38-11.171-1.789
		c-3.579,2.591-4.379,7.592-1.789,11.171c1.885,2.604,3.667,5.254,5.296,7.878c2.246,3.619,4.258,7.279,5.979,10.881
		c1.374,2.873,4.238,4.551,7.223,4.551c1.157,0,2.332-0.252,3.445-0.784c3.986-1.906,5.672-6.682,3.767-10.668
		C281.147,169.423,278.852,165.245,276.298,161.131z"/>
</g>
<g>
</g>
<g>
</g>
<g>
</g>
<g>
</g>
<g>
</g>
<g>
</g>
<g>
</g>
<g>
</g>
<g>
</g>
<g>
</g>
<g>
</g>
<g>
</g>
<g>
</g>
<g>
</g>
<g>
</g>
</svg>
