<?xml version="1.0" encoding="iso-8859-1"?>
<!-- Generator: Adobe Illustrator 19.0.0, SVG Export Plug-In . SVG Version: 6.00 Build 0)  -->
<svg version="1.1" id="Capa_1" xmlns="http://www.w3.org/2000/svg" xmlns:xlink="http://www.w3.org/1999/xlink" x="0px" y="0px"
	 viewBox="0 0 448 448" style="enable-background:new 0 0 448 448;" xml:space="preserve">
<g>
	<path d="M104,305.21H80c-4.418,0-8,3.582-8,8s3.582,8,8,8h24c4.418,0,8-3.582,8-8S108.418,305.21,104,305.21z"/>
	<path d="M440,311.34V297.21c0-21.471-17.292-41.409-38.547-44.445L296.81,237.815c-14.923-2.132-33.225-15.323-39.965-28.806
		L197.466,90.253c-9.558-19.114-33.455-30.804-54.414-26.613L45.81,83.089C24.962,87.259,8,107.948,8,129.21V311.34
		c-4.906,4.397-8,10.778-8,17.869v16c0,13.234,10.767,24,24,24v8c0,4.418,3.582,8,8,8s8-3.582,8-8v-8h16v8c0,4.418,3.582,8,8,8
		s8-3.582,8-8v-8h16v8c0,4.418,3.582,8,8,8s8-3.582,8-8v-8h16c12.08,0,20.828-4.87,28.546-9.166
		c6.257-3.483,11.704-6.515,18.384-6.811l40.28,11.827c0.113,0.034,0.227,0.064,0.342,0.093c8.926,2.197,22.927,3.93,32.448,4.045
		v8.011c0,4.418,3.582,8,8,8s8-3.582,8-8v-8h16v8c0,4.418,3.582,8,8,8s8-3.582,8-8v-8h16v8c0,4.418,3.582,8,8,8s8-3.582,8-8v-8h16v8
		c0,4.418,3.582,8,8,8s8-3.582,8-8v-8h16v8c0,4.418,3.582,8,8,8s8-3.582,8-8v-8h16v8c0,4.418,3.582,8,8,8s8-3.582,8-8v-8h8
		c13.233,0,24-10.766,24-24v-16C448,322.118,444.906,315.738,440,311.34z M432,345.21c0,4.411-3.589,8-8,8H241
		c-8.091,0-21.524-1.623-29.458-3.552l-41.288-12.124c-0.732-0.215-1.491-0.324-2.254-0.324c-11.33,0-19.78,4.704-27.236,8.854
		c-6.888,3.834-12.837,7.146-20.764,7.146H24c-4.411,0-8-3.589-8-8v-16c0-4.411,3.589-8,8-8h24c4.418,0,8-3.582,8-8s-3.582-8-8-8H24
		v-176c0-13.791,11.425-27.727,24.948-30.431L146.19,79.33c13.759-2.751,30.688,5.526,36.965,18.079l18.25,36.5l-31.442,12.899
		c-4.088,1.677-6.042,6.35-4.365,10.438c1.27,3.094,4.255,4.966,7.404,4.966c1.012,0,2.04-0.193,3.033-0.601l32.545-13.352
		l6.617,13.235l-31.234,12.814c-4.088,1.677-6.042,6.35-4.365,10.438c1.27,3.094,4.255,4.966,7.404,4.966
		c1.012,0,2.04-0.193,3.033-0.601l32.337-13.267l6.617,13.235l-31.027,12.729c-4.088,1.677-6.042,6.35-4.365,10.438
		c1.27,3.094,4.255,4.966,7.404,4.966c1.012,0,2.04-0.193,3.033-0.601l32.13-13.182l6.368,12.736
		c9.075,18.152,31.922,34.619,52.013,37.489l104.644,14.949c13.448,1.921,24.81,15.021,24.81,28.606v8H136c-4.418,0-8,3.582-8,8
		s3.582,8,8,8h288c4.411,0,8,3.589,8,8V345.21z"/>
</g>
<g>
</g>
<g>
</g>
<g>
</g>
<g>
</g>
<g>
</g>
<g>
</g>
<g>
</g>
<g>
</g>
<g>
</g>
<g>
</g>
<g>
</g>
<g>
</g>
<g>
</g>
<g>
</g>
<g>
</g>
</svg>
