<?xml version="1.0" encoding="iso-8859-1"?>
<!-- Generator: Adobe Illustrator 19.0.0, SVG Export Plug-In . SVG Version: 6.00 Build 0)  -->
<svg version="1.1" id="Capa_1" xmlns="http://www.w3.org/2000/svg" xmlns:xlink="http://www.w3.org/1999/xlink" x="0px" y="0px"
	 viewBox="0 0 448 448" style="enable-background:new 0 0 448 448;" xml:space="preserve">
<path style="fill:#000001;" d="M408,72.679V64c0-13.233-10.767-24-24-24s-24,10.767-24,24v8H88v-8c0-13.233-10.767-24-24-24
	S40,50.767,40,64v8.679C17.329,76.5,0,96.259,0,120v240c0,26.468,21.532,48,48,48h352c26.468,0,48-21.532,48-48V120
	C448,96.259,430.671,76.5,408,72.679z M336,296c-4.418,0-8,3.582-8,8v24h-96v-24c0-4.418-3.582-8-8-8s-8,3.582-8,8v24h-96v-24
	c0-4.418-3.582-8-8-8s-8,3.582-8,8v24H16v-48h416v48h-88v-24C344,299.582,340.418,296,336,296z M336,232c-4.418,0-8,3.582-8,8v24
	h-96v-24c0-4.418-3.582-8-8-8s-8,3.582-8,8v24h-96v-24c0-4.418-3.582-8-8-8s-8,3.582-8,8v24H16v-48h416v48h-88v-24
	C344,235.582,340.418,232,336,232z M432,200h-88v-24c0-4.418-3.582-8-8-8s-8,3.582-8,8v24h-96v-24c0-4.418-3.582-8-8-8s-8,3.582-8,8
	v24h-96v-24c0-4.418-3.582-8-8-8s-8,3.582-8,8v24H16v-48h416V200z M376,64c0-4.411,3.589-8,8-8s8,3.589,8,8v32c0,4.411-3.589,8-8,8
	s-8-3.589-8-8V64z M56,64c0-4.411,3.589-8,8-8s8,3.589,8,8v32c0,4.411-3.589,8-8,8s-8-3.589-8-8V64z M40,89.013V96
	c0,13.233,10.767,24,24,24s24-10.767,24-24v-8h272v8c0,13.233,10.767,24,24,24s24-10.767,24-24v-6.987
	c13.786,3.562,24,16.104,24,30.987v16H16v-16C16,105.117,26.214,92.574,40,89.013z M400,392h-56v-24c0-4.418-3.582-8-8-8
	s-8,3.582-8,8v24h-96v-24c0-4.418-3.582-8-8-8s-8,3.582-8,8v24h-96v-24c0-4.418-3.582-8-8-8s-8,3.582-8,8v24H48
	c-17.645,0-32-14.355-32-32v-16h416v16C432,377.645,417.645,392,400,392z"/>
<g>
</g>
<g>
</g>
<g>
</g>
<g>
</g>
<g>
</g>
<g>
</g>
<g>
</g>
<g>
</g>
<g>
</g>
<g>
</g>
<g>
</g>
<g>
</g>
<g>
</g>
<g>
</g>
<g>
</g>
</svg>
