<?xml version="1.0" encoding="iso-8859-1"?>
<!-- Generator: Adobe Illustrator 19.0.0, SVG Export Plug-In . SVG Version: 6.00 Build 0)  -->
<svg version="1.1" id="Capa_1" xmlns="http://www.w3.org/2000/svg" xmlns:xlink="http://www.w3.org/1999/xlink" x="0px" y="0px"
	 viewBox="0 0 430 430" style="enable-background:new 0 0 430 430;" xml:space="preserve">
<path d="M401.394,366.889l-39.598-39.598c-4.474-4.474-12.297-8.113-18.602-8.654l-8.809-0.755
	c-1.416-0.122-2.782-0.039-4.094,0.193l-35.848-35.848c4.412-21.748,6.653-44.213,6.653-67.226c0-23.545-2.334-46.519-6.951-68.735
	l35.611-35.611c1.066,0.234,2.17,0.363,3.303,0.363c0.447,0,0.9-0.02,1.359-0.059l8.799-0.752
	c6.305-0.538,14.129-4.177,18.604-8.651l39.571-39.571c3.017-3.016,4.678-7.034,4.678-11.314s-1.661-8.298-4.677-11.314
	L390.08,28.042c-3.016-3.016-7.034-4.676-11.313-4.676c-4.28,0-8.298,1.66-11.314,4.676L327.88,67.615
	c-4.475,4.476-8.113,12.299-8.651,18.604l-0.752,8.8c-0.12,1.4-0.039,2.769,0.198,4.089l-28.9,28.9
	c-3.06-11.33-6.718-22.447-11.007-33.309c-14.187-35.922-34.962-67.881-60.08-92.422c-3.108-3.037-8.073-3.036-11.182,0.001
	c-25.118,24.541-45.893,56.499-60.08,92.421c-3.912,9.906-7.3,20.023-10.19,30.32l-25.911-25.911
	c0.237-1.321,0.318-2.689,0.198-4.089l-0.751-8.8c-0.539-6.305-4.177-14.128-8.652-18.604L62.547,28.042
	c-3.016-3.016-7.034-4.676-11.313-4.676c-4.28,0-8.298,1.66-11.314,4.676L28.606,39.355C25.59,42.372,23.93,46.39,23.93,50.67
	s1.661,8.299,4.677,11.313l39.571,39.571c4.475,4.476,12.299,8.114,18.604,8.652l8.8,0.752c0.459,0.039,0.913,0.059,1.359,0.059
	c1.134,0,2.237-0.129,3.303-0.363l32.483,32.483c-5.06,23.186-7.63,47.209-7.63,71.863c0,24.129,2.453,47.657,7.301,70.385
	l-32.692,32.692c-0.889-0.159-1.799-0.253-2.732-0.253c-0.447,0-0.899,0.02-1.361,0.059l-8.808,0.755
	c-6.304,0.541-14.127,4.181-18.601,8.654l-39.598,39.598c-6.238,6.238-6.238,16.39,0,22.627l11.315,11.316
	c3.016,3.015,7.033,4.675,11.313,4.675c4.28,0,8.298-1.661,11.313-4.676l39.598-39.599c4.474-4.475,8.114-12.298,8.654-18.602
	l0.755-8.808c0.137-1.605,0.034-3.176-0.295-4.672l25.589-25.589c2.973,10.787,6.486,21.379,10.578,31.739
	c14.187,35.922,34.962,67.88,60.08,92.421c1.555,1.52,3.572,2.278,5.591,2.278c2.018,0,4.037-0.76,5.591-2.277
	c25.118-24.541,45.893-56.5,60.08-92.422c4.469-11.316,8.261-22.905,11.395-34.728l28.578,28.578
	c-0.329,1.496-0.432,3.067-0.295,4.673l0.755,8.807c0.541,6.304,4.18,14.127,8.654,18.602l39.599,39.599
	c3.015,3.015,7.033,4.676,11.313,4.676c4.279,0,8.297-1.66,11.314-4.677l11.313-11.313
	C407.632,383.278,407.632,373.127,401.394,366.889z M335.171,87.58c0.214-2.506,2.245-6.873,4.023-8.651l39.572-39.572
	l11.313,11.313l-39.572,39.573c-1.779,1.779-6.145,3.81-8.651,4.023l-7.311,0.624L335.171,87.58z M88.143,94.266
	c-2.506-0.214-6.872-2.244-8.651-4.024L39.92,50.67l11.314-11.313l39.571,39.571c1.779,1.779,3.81,6.146,4.024,8.652l0.625,7.31
	L88.143,94.266z M94.858,341.264c-0.215,2.508-2.247,6.875-4.026,8.654l-39.576,39.586c-0.002,0.001-0.01,0.003-0.022,0.003l0,0.011
	L39.92,378.203l39.598-39.598c1.78-1.78,6.147-3.813,8.654-4.027l7.313-0.627L94.858,341.264z M285.097,215
	c0,18.234-1.477,36.096-4.382,53.497l-27.618-27.618v-53.565l27.351-27.351C283.527,177.85,285.097,196.227,285.097,215z
	 M226.314,214.097l10.783-10.783v21.565L226.314,214.097z M229.589,240h-29.179L215,225.411L229.589,240z M215,202.783L204.217,192
	h21.565L215,202.783z M237.097,176h-48v-8c0-13.233,10.767-24,24-24s24,10.767,24,24V176z M189.097,199.507l14.589,14.589
	l-14.589,14.589V199.507z M189.097,256h48v8c0,13.233-10.767,24-24,24s-24-10.767-24-24V256z M162.308,100.576
	c12.291-31.121,29.768-59.024,50.789-81.18c21.021,22.155,38.498,50.059,50.789,81.18c5.196,13.156,9.439,26.705,12.734,40.587
	l-23.661,23.661C251.333,144.249,234.083,128,213.097,128c-19.817,0-36.306,14.49-39.451,33.428l-23.317-23.316
	C153.512,125.297,157.494,112.766,162.308,100.576z M141.097,215c0-19.908,1.75-39.377,5.211-58.282l26.789,26.789v61.179
	l-27.056,27.056C142.764,253.319,141.097,234.369,141.097,215z M263.886,329.424c-12.291,31.121-29.768,59.024-50.789,81.18
	c-21.021-22.155-38.498-50.059-50.789-81.18c-4.995-12.648-9.099-25.663-12.337-38.984l23.264-23.264
	C174.86,287.751,192.111,304,213.097,304c22.056,0,40-17.944,40-40v-0.493l23.865,23.865
	C273.621,301.766,269.264,315.805,263.886,329.424z M378.788,389.504c-0.002,0.001-0.01,0.003-0.021,0.003v0.01l-39.598-39.599
	c-1.779-1.779-3.812-6.146-4.026-8.654l-0.627-7.313l7.313,0.627c2.507,0.215,6.875,2.247,8.655,4.027l39.597,39.598
	L378.788,389.504z"/>
<g>
</g>
<g>
</g>
<g>
</g>
<g>
</g>
<g>
</g>
<g>
</g>
<g>
</g>
<g>
</g>
<g>
</g>
<g>
</g>
<g>
</g>
<g>
</g>
<g>
</g>
<g>
</g>
<g>
</g>
</svg>
