<?xml version="1.0" encoding="iso-8859-1"?>
<!-- Generator: Adobe Illustrator 19.0.0, SVG Export Plug-In . SVG Version: 6.00 Build 0)  -->
<svg version="1.1" id="Capa_1" xmlns="http://www.w3.org/2000/svg" xmlns:xlink="http://www.w3.org/1999/xlink" x="0px" y="0px"
	 viewBox="0 0 456 456" style="enable-background:new 0 0 456 456;" xml:space="preserve">
<g>
	<path d="M448,291.872c-4.418,0-8,3.582-8,8v0.274c0,4.337-3.528,7.865-7.865,7.865H384V155.898
		c0-52.949-43.077-96.026-96.026-96.026H32.027C14.367,59.872,0,74.239,0,91.899v239.973c0,4.418,3.582,8,8,8h184.179
		C192.071,341.236,192,342.609,192,344c0,28.743,23.384,52.128,52.128,52.128s52.128-23.385,52.128-52.128
		c0-1.391-0.071-2.764-0.179-4.128H376c4.418,0,8-3.582,8-8v-7.86h48.135c13.159,0,23.865-10.706,23.865-23.865v-0.274
		C456,295.454,452.418,291.872,448,291.872z M16,283.872h24v40H16V283.872z M128,323.872H56v-160c0-4.411,3.589-8,8-8h56
		c4.411,0,8,3.589,8,8V323.872z M244.128,380.128C224.207,380.128,208,363.921,208,344s16.207-36.128,36.128-36.128
		s36.128,16.207,36.128,36.128S264.049,380.128,244.128,380.128z M368,323.872h-75.791c-7.89-18.778-26.469-32-48.082-32
		s-40.191,13.222-48.082,32H144v-40h200c4.418,0,8-3.582,8-8s-3.582-8-8-8H144v-104c0-13.233-10.767-24-24-24H64
		c-13.233,0-24,10.767-24,24v104H16v-152h304c4.418,0,8-3.582,8-8s-3.582-8-8-8H16v-7.973c0-8.838,7.19-16.027,16.027-16.027
		h255.946c44.126,0,80.026,35.899,80.026,80.026V323.872z"/>
	<path d="M328,139.872H184c-4.418,0-8,3.582-8,8v64c0,4.418,3.582,8,8,8h144c4.418,0,8-3.582,8-8v-64
		C336,143.454,332.418,139.872,328,139.872z M192,155.872h56v48h-56V155.872z M320,203.872h-56v-48h56V203.872z"/>
	<path d="M256.256,344c0,6.688-5.44,12.128-12.128,12.128S232,350.688,232,344s5.44-12.128,12.128-12.128c4.418,0,8-3.582,8-8
		s-3.582-8-8-8C228.618,315.872,216,328.49,216,344s12.618,28.128,28.128,28.128S272.256,359.51,272.256,344c0-4.418-3.582-8-8-8
		S256.256,339.582,256.256,344z"/>
</g>
<g>
</g>
<g>
</g>
<g>
</g>
<g>
</g>
<g>
</g>
<g>
</g>
<g>
</g>
<g>
</g>
<g>
</g>
<g>
</g>
<g>
</g>
<g>
</g>
<g>
</g>
<g>
</g>
<g>
</g>
</svg>
