<?xml version="1.0" encoding="iso-8859-1"?>
<!-- Generator: Adobe Illustrator 19.0.0, SVG Export Plug-In . SVG Version: 6.00 Build 0)  -->
<svg version="1.1" id="Capa_1" xmlns="http://www.w3.org/2000/svg" xmlns:xlink="http://www.w3.org/1999/xlink" x="0px" y="0px"
	 viewBox="0 0 411 411" style="enable-background:new 0 0 411 411;" xml:space="preserve">
<g>
	<path d="M402.568,154.958c-6.294-19.372-14.719-34.765-25.039-45.751c-12.207-12.994-26.74-19.582-43.196-19.582
		c-7.061,0-14.498,1.253-22.105,3.726c-8.447,2.744-17.687,7.206-26.955,12.932c4.278-13.982,6.655-27.734,6.655-39.4
		c0-22.879-9.203-40.997-26.613-52.394C250.63,4.875,230.478,0,205.419,0c-25.059,0-45.211,4.875-59.896,14.488
		c-17.411,11.397-26.613,29.515-26.613,52.394c0,11.625,2.363,25.335,6.617,39.276c-9.203-5.667-18.373-10.085-26.753-12.808
		c-7.608-2.472-15.045-3.726-22.106-3.726c-16.458,0-30.991,6.588-43.197,19.581C23.15,120.19,14.726,135.583,8.431,154.958
		c-7.744,23.833-9.335,44.504-4.73,61.441c5.459,20.081,19.847,34.432,41.606,41.501c8.164,2.652,17.7,4.443,28.087,5.299
		c-7.139,6.331-13.241,12.887-17.887,19.281c-13.448,18.509-16.652,38.576-9.266,58.031c6.23,16.409,19.668,32.198,39.941,46.927
		C107.701,403.073,127.921,411,146.28,411c19.717,0,36.271-9.024,49.202-26.822c4.878-6.714,9.415-14.974,13.351-24.21
		c3.938,9.236,8.474,17.496,13.352,24.21C235.115,401.976,251.669,411,271.387,411c18.358,0,38.578-7.927,60.098-23.562
		c20.273-14.729,33.711-30.518,39.941-46.927c7.386-19.455,4.182-39.521-9.267-58.031c-4.79-6.592-11.138-13.364-18.575-19.884
		c8.075-0.982,15.535-2.56,22.108-4.696c21.76-7.07,36.147-21.421,41.606-41.501C411.904,199.461,410.313,178.79,402.568,154.958z
		 M391.859,212.201c-4.089,15.038-14.265,25.009-31.111,30.482c-10.455,3.397-24.387,5.203-39.035,5.101c-0.021,0-0.043,0-0.064,0
		c-3.499,0-6.596,2.276-7.638,5.622c-1.048,3.366,0.231,7.021,3.148,9c13.521,9.168,24.904,19.638,32.057,29.479
		c10.411,14.33,12.783,28.378,7.252,42.947c-4.541,11.958-14.673,24.283-29.422,35.893l-19.948-27.456
		c-2.597-3.574-7.6-4.369-11.174-1.77c-3.574,2.597-4.367,7.6-1.77,11.174l19.844,27.313C298.521,389.825,283.923,395,271.387,395
		c-14.51,0-26.369-6.616-36.258-20.226c-7.428-10.224-14.03-24.852-18.591-41.19c-0.965-3.458-4.115-5.849-7.705-5.849
		c-3.59,0-6.741,2.392-7.706,5.85c-4.559,16.337-11.161,30.965-18.59,41.189C172.649,388.384,160.789,395,146.28,395
		c-13.146,0-28.56-5.688-44.878-16.484l18.776-25.844c2.597-3.574,1.805-8.577-1.77-11.174c-3.573-2.596-8.577-1.805-11.174,1.77
		l-18.722,25.769c-13.608-11.113-22.992-22.826-27.313-34.205c-5.531-14.569-3.159-28.617,7.252-42.947
		c7.208-9.921,18.69-20.458,32.331-29.67c2.971-2.006,4.245-5.745,3.116-9.148c-1.128-3.403-4.375-5.625-7.964-5.474
		c-2.678,0.125-5.38,0.188-8.032,0.188c-14.162,0-27.533-1.811-37.651-5.098c-16.846-5.474-27.022-15.444-31.111-30.482
		c-3.258-11.983-2.468-27.338,2.256-44.752l30.395,10.684c0.877,0.309,1.772,0.455,2.653,0.455c3.301,0,6.391-2.059,7.547-5.349
		c1.465-4.168-0.726-8.735-4.895-10.2l-30.743-10.807c8.685-22.792,24.045-46.607,50.313-46.607c5.379,0,11.153,0.99,17.162,2.942
		c13.389,4.35,29.344,13.869,43.774,26.118c2.876,2.441,7.065,2.542,10.052,0.243c2.99-2.298,3.969-6.372,2.35-9.777
		c-9.453-19.883-15.096-41.666-15.096-58.269c0-17.712,6.338-30.472,19.376-39.007c10.365-6.786,25.168-10.776,43.133-11.677v31.407
		c0,4.418,3.582,8,8,8s8-3.582,8-8V16.197c17.964,0.901,32.768,4.891,43.134,11.677c13.038,8.535,19.376,21.295,19.376,39.007
		c0,16.678-5.686,38.547-15.208,58.5c-1.627,3.408-0.648,7.489,2.346,9.79c2.995,2.301,7.188,2.194,10.063-0.255
		c14.509-12.365,30.562-21.969,44.042-26.35c6.01-1.952,11.783-2.942,17.162-2.942c26.498,0,41.9,24.232,50.544,47.203
		l-29.047,10.211c-4.168,1.465-6.359,6.032-4.894,10.2c1.156,3.291,4.246,5.349,7.547,5.349c0.88,0,1.775-0.146,2.653-0.455
		l28.628-10.063C394.338,185.226,395.078,200.362,391.859,212.201z"/>
	<path d="M279.388,177.424c-8.763,0-16.012,6.525-17.193,14.967l-37.312,12.123c-3.094-3.25-6.99-5.73-11.373-7.106v-37.613
		c5.566-2.901,9.382-8.716,9.382-15.415c0-9.584-7.797-17.381-17.381-17.381c-9.584,0-17.381,7.797-17.381,17.381
		c0,6.699,3.815,12.514,9.381,15.415v37.613c-4.383,1.376-8.279,3.855-11.373,7.105l-38.545-12.524
		c-1.352-8.247-8.509-14.566-17.132-14.566c-9.584,0-17.381,7.797-17.381,17.381s7.797,17.381,17.381,17.381
		c4.734,0,9.027-1.907,12.164-4.987l36.413,11.831c-0.189,1.28-0.29,2.588-0.29,3.919c0,6.522,2.348,12.504,6.239,17.152
		l-22.879,31.49c-1.132-0.233-2.303-0.355-3.503-0.355c-9.584,0-17.381,7.797-17.381,17.381S149.02,306,158.604,306
		s17.381-7.797,17.381-17.381c0-2.459-0.52-4.797-1.445-6.919l23.929-32.934c2.245,0.613,4.605,0.947,7.042,0.947
		c2.994,0,5.871-0.502,8.562-1.413l23.162,31.88c-1.396,2.501-2.199,5.377-2.199,8.439c0,9.584,7.798,17.381,17.382,17.381
		c9.584,0,17.381-7.797,17.381-17.381s-7.797-17.381-17.381-17.381c-0.619,0-1.23,0.035-1.832,0.099l-23.583-32.459
		c3.309-4.454,5.27-9.965,5.27-15.927c0-1.331-0.101-2.639-0.29-3.919l35.549-11.551c3.109,2.91,7.272,4.707,11.856,4.707
		c9.584,0,17.382-7.797,17.382-17.381S288.972,177.424,279.388,177.424z M194.748,222.95c0-5.935,4.828-10.763,10.763-10.763
		c5.934,0,10.762,4.828,10.762,10.763s-4.828,10.763-10.762,10.763C199.576,233.712,194.748,228.884,194.748,222.95z"/>
</g>
<g>
</g>
<g>
</g>
<g>
</g>
<g>
</g>
<g>
</g>
<g>
</g>
<g>
</g>
<g>
</g>
<g>
</g>
<g>
</g>
<g>
</g>
<g>
</g>
<g>
</g>
<g>
</g>
<g>
</g>
</svg>
