<?xml version="1.0" encoding="iso-8859-1"?>
<!-- Generator: Adobe Illustrator 19.0.0, SVG Export Plug-In . SVG Version: 6.00 Build 0)  -->
<svg version="1.1" id="Capa_1" xmlns="http://www.w3.org/2000/svg" xmlns:xlink="http://www.w3.org/1999/xlink" x="0px" y="0px"
	 viewBox="0 0 464 464" style="enable-background:new 0 0 464 464;" xml:space="preserve">
<g>
	<path d="M456,364H336v-5.079c0-0.03,0-0.062-0.001-0.092c0.001-0.03,0.001-0.062,0.001-0.092c0-5.24,2.028-9.77,5.778-12.808
		c13.522-11.196,23.456-24.993,29.038-39.866c1.434,1.223,3.262,1.938,5.181,1.938c0.818,0,1.65-0.126,2.47-0.393
		c4.203-1.362,6.505-5.875,5.142-10.077c-2.037-6.283-1.653-11.814,1.082-15.576c2.761-3.799,7.906-5.891,14.488-5.891h4.771
		c15.466,0,28.049-12.583,28.049-28.049v-15.537c0-15.466-12.583-28.049-28.049-28.049H376V188c0-4.418-3.582-8-8-8H96
		c-4.418,0-8,3.582-8,8v90.071c0,26.035,11.676,50.601,32.087,67.626c0.112,0.102,0.229,0.201,0.349,0.298
		c4.736,3.828,7.564,8.592,7.564,12.742V364H8c-4.418,0-8,3.582-8,8c0,22.056,17.944,40,40,40h384c22.056,0,40-17.944,40-40
		C464,367.582,460.418,364,456,364z M403.951,220.431c6.644,0,12.049,5.405,12.049,12.049v15.537
		c0,6.644-5.405,12.049-12.049,12.049h-4.771c-9.321,0-17.333,2.759-23.18,7.858v-47.493H403.951z M131.848,334.691
		c-0.183-0.179-0.376-0.351-0.579-0.515C113.939,320.175,104,299.726,104,278.071V196h256v82.071
		c0,20.336-10.36,40.577-28.358,55.479C324.243,339.543,320,348.724,320,358.737c0,0.03,0,0.062,0.001,0.092
		c-0.001,0.03-0.001,0.062-0.001,0.092V364H144v-5.263C144,350.157,139.593,341.478,131.848,334.691z M424,396H40
		c-10.43,0-19.327-6.688-22.629-16H136h192h118.629C443.327,389.313,434.43,396,424,396z"/>
	<path d="M208,348h96c4.418,0,8-3.582,8-8s-3.582-8-8-8h-96c-4.418,0-8,3.582-8,8S203.582,348,208,348z"/>
	<path d="M160,348h16c4.418,0,8-3.582,8-8s-3.582-8-8-8h-16c-4.418,0-8,3.582-8,8S155.582,348,160,348z"/>
	<path d="M216,156c0,4.418,3.582,8,8,8s8-3.582,8-8c0-4.495,1.734-6.419,5.656-10.341c4.365-4.365,10.344-10.343,10.344-21.656
		c0-11.314-5.979-17.293-10.343-21.658C233.734,98.423,232,96.499,232,92.002s1.734-6.421,5.657-10.345
		C242.022,77.292,248,71.314,248,60c0-4.418-3.582-8-8-8s-8,3.582-8,8c0,4.497-1.734,6.421-5.657,10.345
		C221.978,74.71,216,80.688,216,92.002c0,11.313,5.978,17.292,10.343,21.656c3.923,3.924,5.657,5.848,5.657,10.345
		c0,4.496-1.734,6.42-5.657,10.342C221.979,138.71,216,144.688,216,156z"/>
	<path d="M256,156c0,4.418,3.582,8,8,8s8-3.582,8-8c0-4.495,1.734-6.419,5.656-10.341c4.365-4.365,10.344-10.343,10.344-21.656
		c0-11.314-5.979-17.293-10.343-21.658C273.734,98.423,272,96.499,272,92.002c0-4.418-3.582-8-8-8s-8,3.582-8,8
		c0,11.313,5.978,17.292,10.343,21.656c3.923,3.924,5.657,5.848,5.657,10.345c0,4.496-1.734,6.42-5.657,10.342
		C261.979,138.71,256,144.688,256,156z"/>
	<path d="M176,156c0,4.418,3.582,8,8,8s8-3.582,8-8c0-4.495,1.734-6.419,5.656-10.341c4.365-4.365,10.344-10.343,10.344-21.656
		c0-11.314-5.979-17.293-10.343-21.658C193.734,98.423,192,96.499,192,92.002c0-4.418-3.582-8-8-8s-8,3.582-8,8
		c0,11.313,5.978,17.292,10.343,21.656c3.923,3.924,5.657,5.848,5.657,10.345c0,4.496-1.734,6.42-5.657,10.342
		C181.979,138.71,176,144.688,176,156z"/>
</g>
<g>
</g>
<g>
</g>
<g>
</g>
<g>
</g>
<g>
</g>
<g>
</g>
<g>
</g>
<g>
</g>
<g>
</g>
<g>
</g>
<g>
</g>
<g>
</g>
<g>
</g>
<g>
</g>
<g>
</g>
</svg>
