<?xml version="1.0" encoding="iso-8859-1"?>
<!-- Generator: Adobe Illustrator 19.0.0, SVG Export Plug-In . SVG Version: 6.00 Build 0)  -->
<svg version="1.1" id="Capa_1" xmlns="http://www.w3.org/2000/svg" xmlns:xlink="http://www.w3.org/1999/xlink" x="0px" y="0px"
	 viewBox="0 0 485.805 485.805" style="enable-background:new 0 0 485.805 485.805;" xml:space="preserve">
<g>
	<path d="M229.71,350.977c-1.631-8.06-2.958-21.815-2.899-29.993l3.487-272.401c0.05-6.917-2.788-12.822-7.786-16.203
		c-4.997-3.38-11.533-3.818-17.938-1.198c-0.634,0.26-63.711,26.008-90.35,31.398c-26.148,5.291-94.77,6.172-95.459,6.181
		C11.852,68.844,6,71.794,2.713,76.854C-0.575,81.915-0.892,88.46,1.86,94.853l109.07,249.535c3.25,7.552,7.375,20.742,9.006,28.802
		l7.735,38.226c5.369,26.533,28.783,44.899,54.87,44.899c3.669,0,7.393-0.364,11.124-1.119c30.265-6.125,49.905-35.729,43.78-65.995
		L229.71,350.977z M190.491,439.515c-21.61,4.375-42.764-9.653-47.139-31.272l-7.735-38.225c-1.84-9.097-6.322-23.432-10.01-31.996
		L16.537,88.486c-0.673-1.563-0.612-2.599-0.407-2.915c0.204-0.315,1.126-0.791,2.827-0.811c2.879-0.035,70.821-0.909,98.441-6.497
		c28.107-5.688,90.59-31.19,93.236-32.273c1.573-0.644,2.605-0.567,2.912-0.357c0.309,0.208,0.764,1.136,0.752,2.791l-3.487,272.401
		c-0.066,9.279,1.376,24.229,3.217,33.326l7.735,38.225C226.138,413.994,212.11,435.14,190.491,439.515z"/>
	<path d="M204.402,346.916c-0.421-2.08-1.65-3.907-3.418-5.08c-1.77-1.173-3.931-1.595-6.01-1.175l-47.047,9.52
		c-2.079,0.421-3.906,1.651-5.079,3.419c-1.174,1.768-1.596,3.93-1.175,6.009l9.521,47.046
		c3.008,14.867,16.188,25.658,31.339,25.658c2.128,0,4.271-0.215,6.372-0.64c8.377-1.695,15.594-6.551,20.318-13.674
		c4.726-7.123,6.394-15.659,4.698-24.037L204.402,346.916z M195.891,409.154c-2.362,3.561-5.97,5.989-10.159,6.836
		c-1.058,0.214-2.134,0.323-3.198,0.323c-7.568,0-14.152-5.396-15.657-12.832l-7.934-39.205l31.364-6.347l7.934,39.205
		C199.088,401.325,198.253,405.593,195.891,409.154z"/>
	<path d="M190.33,264.068c2.928,3.309,7.985,3.619,11.293,0.691c3.31-2.927,3.618-7.983,0.691-11.292
		c-13.219-14.942-33.558-21.77-53.076-17.821c-19.521,3.95-35.603,18.148-41.971,37.054c-1.411,4.187,0.84,8.725,5.027,10.135
		c0.847,0.285,1.708,0.42,2.555,0.42c3.34,0,6.455-2.108,7.58-5.448c4.552-13.512,16.04-23.658,29.982-26.479
		C166.347,248.505,180.883,253.389,190.33,264.068z"/>
	<path d="M483.088,76.854c-3.288-5.06-9.139-8.01-16.053-8.093c-0.689-0.008-69.311-0.89-95.459-6.18
		c-26.628-5.389-89.716-31.139-90.35-31.398c-6.4-2.619-12.938-2.184-17.938,1.198c-4.998,3.381-7.836,9.287-7.785,16.248
		l3.485,272.312c0.06,8.222-1.268,21.978-2.898,30.037l-7.735,38.225c-6.125,30.265,13.516,59.87,43.78,65.995
		c3.733,0.755,7.454,1.119,11.124,1.119c26.085,0,49.502-18.368,54.87-44.899l7.735-38.226c1.631-8.06,5.756-21.25,8.988-28.761
		L483.961,94.811C486.694,88.459,486.376,81.914,483.088,76.854z M469.282,88.445L360.176,338.062
		c-3.67,8.523-8.152,22.858-9.992,31.955l-7.735,38.226c-4.375,21.617-25.522,35.645-47.139,31.272
		c-21.618-4.375-35.646-25.521-31.272-47.139l7.735-38.226c1.841-9.097,3.283-24.046,3.216-33.371l-3.485-272.312
		c-0.013-1.699,0.442-2.627,0.751-2.835c0.308-0.21,1.342-0.286,2.912,0.358c2.646,1.083,65.129,26.584,93.236,32.272
		c27.62,5.588,95.563,6.462,98.441,6.497c1.701,0.021,2.623,0.497,2.827,0.812C469.876,85.887,469.937,86.923,469.282,88.445z"/>
	<path d="M337.873,350.181l-47.047-9.52c-2.079-0.42-4.24,0.002-6.01,1.175c-1.768,1.173-2.997,3-3.418,5.08l-9.52,47.046
		c-1.695,8.378-0.027,16.915,4.698,24.037c4.725,7.123,11.941,11.979,20.318,13.674c2.1,0.425,4.243,0.64,6.372,0.64
		c0.001,0,0.001,0,0.002,0c15.149,0,28.329-10.791,31.337-25.658l9.521-47.046c0.421-2.08-0.001-4.241-1.175-6.009
		C341.779,351.832,339.952,350.602,337.873,350.181z M318.925,403.482c-1.505,7.435-8.089,12.832-15.656,12.831
		c-1.065,0-2.143-0.108-3.199-0.323c-4.189-0.847-7.797-3.275-10.159-6.836c-2.362-3.562-3.197-7.83-2.35-12.019l7.934-39.205
		l31.364,6.347L318.925,403.482z"/>
	<path d="M336.563,235.646c-19.522-3.949-39.857,2.879-53.076,17.821c-2.927,3.309-2.618,8.365,0.691,11.292
		c3.31,2.928,8.365,2.618,11.293-0.691c9.447-10.679,23.977-15.561,37.918-12.74c13.942,2.821,25.431,12.967,29.983,26.479
		c1.125,3.34,4.24,5.448,7.58,5.448c0.847,0,1.708-0.135,2.555-0.421c4.188-1.411,6.438-5.948,5.027-10.135
		C372.165,253.794,356.082,239.596,336.563,235.646z"/>
</g>
<g>
</g>
<g>
</g>
<g>
</g>
<g>
</g>
<g>
</g>
<g>
</g>
<g>
</g>
<g>
</g>
<g>
</g>
<g>
</g>
<g>
</g>
<g>
</g>
<g>
</g>
<g>
</g>
<g>
</g>
</svg>
