<?xml version="1.0" encoding="iso-8859-1"?>
<!-- Generator: Adobe Illustrator 19.0.0, SVG Export Plug-In . SVG Version: 6.00 Build 0)  -->
<svg version="1.1" id="Capa_1" xmlns="http://www.w3.org/2000/svg" xmlns:xlink="http://www.w3.org/1999/xlink" x="0px" y="0px"
	 viewBox="0 0 464.005 464.005" style="enable-background:new 0 0 464.005 464.005;" xml:space="preserve">
<path d="M463.768,22.579c-1.063-4.288-5.404-6.905-9.689-5.841L268.05,62.83c-4.339-6.602-11.772-10.795-20.034-10.795
	c-1.942,0-3.889,0.239-5.785,0.709l-32,7.928c-6.223,1.542-11.473,5.414-14.783,10.905c-1.88,3.119-3.004,6.549-3.344,10.07
	L6.078,127.738c-4.289,1.063-6.904,5.4-5.842,9.689c0.903,3.643,4.168,6.078,7.76,6.078c0.637,0,1.284-0.077,1.93-0.237
	l186.03-46.092c4.339,6.602,11.773,10.795,20.035,10.795c1.943,0,3.89-0.239,5.783-0.708l2.229-0.552v52.792h-32
	c-13.233,0-24,10.767-24,24v8h-56c-22.056,0-40,17.944-40,40v176c0,22.056,17.944,40,40,40h240c22.056,0,40-17.944,40-40v-176
	c0-22.056-17.944-40-40-40h-56v-8c0-13.233-10.767-24-24-24h-32v-56.757l13.771-3.412c6.223-1.542,11.473-5.414,14.783-10.905
	c1.88-3.119,3.004-6.549,3.344-10.07l186.026-46.091C462.215,31.206,464.83,26.868,463.768,22.579z M376.002,327.503h-80v-88h80
	V327.503z M280.002,327.503h-96v-88h96V327.503z M184.002,343.503h96v56c0,4.411-3.589,8-8,8h-80c-4.411,0-8-3.589-8-8V343.503z
	 M168.002,327.503h-80v-88h80V327.503z M352.002,431.503h-240c-13.233,0-24-10.766-24-24v-32h56c4.418,0,8-3.582,8-8s-3.582-8-8-8
	h-56v-16h80v56c0,13.233,10.767,24,24,24h80c13.233,0,24-10.767,24-24v-56h80v16h-56c-4.418,0-8,3.582-8,8s3.582,8,8,8h56v32
	C376.002,420.737,365.236,431.503,352.002,431.503z M374.626,223.503H89.378c3.302-9.311,12.195-16,22.624-16h240
	C362.431,207.503,371.324,214.192,374.626,223.503z M280.002,183.503v8h-96v-8c0-4.411,3.589-8,8-8h80
	C276.413,175.503,280.002,179.092,280.002,183.503z M254.854,80.169c-1.104,1.83-2.854,3.121-4.928,3.635l-32.003,7.929
	c-0.637,0.158-1.287,0.238-1.933,0.238c-3.678,0-6.866-2.5-7.754-6.08c-0.514-2.074-0.189-4.224,0.914-6.054
	c1.104-1.83,2.854-3.121,4.928-3.635l32.001-7.929c0.639-0.158,1.291-0.239,1.937-0.239c3.677,0,6.864,2.5,7.752,6.081
	C256.282,76.189,255.957,78.339,254.854,80.169z"/>
<g>
</g>
<g>
</g>
<g>
</g>
<g>
</g>
<g>
</g>
<g>
</g>
<g>
</g>
<g>
</g>
<g>
</g>
<g>
</g>
<g>
</g>
<g>
</g>
<g>
</g>
<g>
</g>
<g>
</g>
</svg>
