<?xml version="1.0" encoding="iso-8859-1"?>
<!-- Generator: Adobe Illustrator 19.0.0, SVG Export Plug-In . SVG Version: 6.00 Build 0)  -->
<svg version="1.1" id="Capa_1" xmlns="http://www.w3.org/2000/svg" xmlns:xlink="http://www.w3.org/1999/xlink" x="0px" y="0px"
	 viewBox="0 0 496 496" style="enable-background:new 0 0 496 496;" xml:space="preserve">
<g>
	<path d="M411.217,176.646c-9.803-8.433-21.413-14.24-33.573-16.794c-4.322-0.908-8.565,1.861-9.474,6.185s1.861,8.565,6.185,9.474
		c9.527,2.001,18.666,6.588,26.429,13.266c1.51,1.299,3.366,1.935,5.213,1.935c2.25,0,4.486-0.944,6.068-2.783
		C414.947,184.579,414.567,179.527,411.217,176.646z"/>
	<path d="M472,208h-4.343c-6.146-35.885-38.045-67.136-74.297-71.37C392.621,136.544,318.648,128,248,128
		c-71.975,0-143.675,8.42-144.391,8.505C67.371,140.811,35.363,172.12,29.086,208H24c-13.234,0-24,10.766-24,24v24
		c0,12.658,9.851,23.051,22.289,23.932l-1.413,15.526c-0.003,0.04-0.007,0.08-0.01,0.12c-1.458,19.222,4.752,37.375,17.49,51.115
		C51.093,360.433,68.724,368,88,368h72c15.316,0,35.797-8.483,46.627-19.314l30.059-30.059c3.003-3.003,7.021-4.657,11.314-4.657
		s8.311,1.654,11.314,4.657l30.059,30.059C300.203,359.517,320.684,368,336,368h72c19.27,0,36.926-7.564,49.716-21.301
		c12.79-13.736,19.077-31.886,17.704-51.106c-0.002-0.038-0.005-0.075-0.009-0.113l-1.334-15.576
		C486.341,278.847,496,268.534,496,256v-24C496,218.766,485.234,208,472,208z M16,256v-24c0-4.411,3.589-8,8-8h3.379l-3.639,39.987
		C19.45,263.848,16,260.323,16,256z M88,352c-14.772,0-28.235-5.748-37.91-16.185c-9.663-10.423-14.375-24.261-13.274-38.97
		l7.308-80.304c0.003-0.04,0.007-0.08,0.01-0.12c1.148-15.132,8.211-30.175,19.888-42.358c11.677-12.184,26.406-19.88,41.475-21.67
		c0.33-0.039,15.963-1.874,39.766-3.818l7.626,7.626c-16.349,1.325-26.722,2.458-26.971,2.485
		c-33.206,3.668-62.3,32.062-64.891,63.309l-6.174,63.083c-0.004,0.043-0.008,0.085-0.012,0.128
		c-1.217,14.91,3.691,29.173,13.819,40.162C79.573,337.209,95.664,344,112.807,344h73.454c-8.208,4.664-18.567,8-26.261,8H88z
		 M309.739,344h30.948l8,8H336C328.306,352,317.947,348.664,309.739,344z M446.006,335.796C436.276,346.245,422.779,352,408,352
		h-36.687l-8-8h19.92c17.136,0,33.251-6.788,44.211-18.623c10.172-10.983,15.143-25.241,13.998-40.148
		c-0.003-0.041-0.006-0.081-0.01-0.121l-5.809-63.055c-0.282-3.612-0.923-7.264-1.906-10.854c-1.167-4.26-5.565-6.77-9.83-5.602
		c-4.261,1.168-6.769,5.569-5.602,9.83c0.721,2.63,1.188,5.293,1.39,7.913c0.003,0.041,0.006,0.081,0.01,0.122l5.809,63.049
		c0.783,10.392-2.692,20.332-9.788,27.994C407.763,323.082,395.928,328,383.233,328h-35.92L229.657,210.343
		c-3.124-3.124-8.189-3.124-11.313,0c-3.125,3.124-3.125,8.189,0,11.313L324.687,328H293c-0.526,0-1.038,0.054-1.536,0.151
		l-20.837-20.837c-6.025-6.025-14.061-9.344-22.627-9.344s-16.602,3.318-22.627,9.344L204.687,328h-91.879
		c-12.687,0-24.489-4.911-32.381-13.474c-7.05-7.649-10.473-17.576-9.642-27.957l6.173-63.078c0.004-0.043,0.008-0.085,0.012-0.128
		c1.928-23.615,25.148-45.95,50.706-48.773c0.308-0.034,16.386-1.79,40.123-3.48l26.546,26.546c1.562,1.562,3.609,2.343,5.657,2.343
		s4.095-0.781,5.657-2.343c3.125-3.124,3.125-8.189,0-11.313l-16.582-16.582c18.065-1.002,38.49-1.761,58.946-1.761
		c32.708,0,66.107,2.042,88.366,3.755c4.404,0.336,8.25-2.958,8.59-7.363c0.339-4.405-2.958-8.251-7.363-8.59
		c-22.539-1.734-56.377-3.802-89.593-3.802c-26.346,0-52.645,1.241-74.054,2.653l-7.651-7.651C190.394,145.369,219.18,144,248,144
		c69.693,0,142.774,8.437,143.504,8.522c15.063,1.759,29.758,9.422,41.379,21.578c11.621,12.156,18.616,27.181,19.696,42.308
		c0.002,0.038,0.005,0.075,0.009,0.113l6.876,80.268C460.502,311.509,455.724,325.359,446.006,335.796z M480,256
		c0,4.171-3.21,7.602-7.289,7.964L469.288,224H472c4.411,0,8,3.589,8,8V256z"/>
</g>
<g>
</g>
<g>
</g>
<g>
</g>
<g>
</g>
<g>
</g>
<g>
</g>
<g>
</g>
<g>
</g>
<g>
</g>
<g>
</g>
<g>
</g>
<g>
</g>
<g>
</g>
<g>
</g>
<g>
</g>
</svg>
