<?xml version="1.0" encoding="iso-8859-1"?>
<!-- Generator: Adobe Illustrator 19.0.0, SVG Export Plug-In . SVG Version: 6.00 Build 0)  -->
<svg version="1.1" id="Capa_1" xmlns="http://www.w3.org/2000/svg" xmlns:xlink="http://www.w3.org/1999/xlink" x="0px" y="0px"
	 viewBox="0 0 448 448" style="enable-background:new 0 0 448 448;" xml:space="preserve">
<g>
	<path d="M152,264c4.418,0,8-3.582,8-8v-56c0-4.418-3.582-8-8-8h-48c-4.418,0-8,3.582-8,8v56c0,4.418,3.582,8,8,8H152z M112,208h32
		v40h-32V208z"/>
	<path d="M176,264h48c4.418,0,8-3.582,8-8v-56c0-4.418-3.582-8-8-8h-48c-4.418,0-8,3.582-8,8v56C168,260.418,171.582,264,176,264z
		 M184,208h32v40h-32V208z"/>
	<path d="M440,344v-24c0-4.418-3.582-8-8-8v-24c4.418,0,8-3.582,8-8s-3.582-8-8-8h-40v-82.151l5.574,1.774
		c0.794,0.253,1.612,0.377,2.425,0.377c1.677,0,3.335-0.527,4.723-1.542c2.06-1.507,3.278-3.905,3.278-6.458v-32
		c0-3.483-2.254-6.567-5.574-7.623l-176-56c-1.578-0.502-3.273-0.502-4.852,0L136,115.605V96c0-4.418-3.582-8-8-8H80
		c-4.418,0-8,3.582-8,8v39.969l-26.426,8.408C42.254,145.433,40,148.517,40,152v32c0,2.553,1.218,4.951,3.278,6.458
		s4.716,1.94,7.148,1.165L56,189.849V272H16c-4.418,0-8,3.582-8,8s3.582,8,8,8v24c-4.418,0-8,3.582-8,8v24c-4.418,0-8,3.582-8,8
		s3.582,8,8,8h432c4.418,0,8-3.582,8-8S444.418,344,440,344z M416,288v24h-24v-24H416z M352,312v-24h24v24H352z M72,312v-24h24v24
		H72z M112,288h64v24h-64V288z M192,288h64v24h-64V288z M272,288c4.418,0,8-3.582,8-8s-3.582-8-8-8v-64h64v64c-4.418,0-8,3.582-8,8
		s3.582,8,8,8v24h-64V288z M88,104h32v16.696l-32,10.182V104z M56,157.85l168-53.454l168,53.454v15.21l-165.574-52.683
		C225.637,120.126,224.818,120,224,120s-1.637,0.126-2.426,0.377L56,173.06V157.85z M72,184.759l152-48.363l152,48.363V272h-24v-72
		c0-4.418-3.582-8-8-8h-80c-4.418,0-8,3.582-8,8v72H72V184.759z M32,288h24v24H32V288z M24,328h400v16H24V328z"/>
</g>
<g>
</g>
<g>
</g>
<g>
</g>
<g>
</g>
<g>
</g>
<g>
</g>
<g>
</g>
<g>
</g>
<g>
</g>
<g>
</g>
<g>
</g>
<g>
</g>
<g>
</g>
<g>
</g>
<g>
</g>
</svg>
