<?xml version="1.0" encoding="iso-8859-1"?>
<!-- Generator: Adobe Illustrator 19.0.0, SVG Export Plug-In . SVG Version: 6.00 Build 0)  -->
<svg version="1.1" id="Capa_1" xmlns="http://www.w3.org/2000/svg" xmlns:xlink="http://www.w3.org/1999/xlink" x="0px" y="0px"
	 viewBox="0 0 440.104 440.104" style="enable-background:new 0 0 440.104 440.104;" xml:space="preserve">
<g>
	<path d="M321.461,91.08c-1.442-1.809-3.593-2.888-5.891-2.993C311.532,38.84,270.168,0,219.898,0
		c-50.276,0-91.644,38.85-95.673,88.104c-2.182,0.185-4.206,1.248-5.583,2.976c-1.518,1.905-2.085,4.397-1.542,6.771l72.262,315.609
		c0.072,0.315,0.164,0.626,0.273,0.93c5.811,16.1,17.195,25.712,30.453,25.712c13.096,0,24.742-9.866,30.392-25.747
		c0.104-0.293,0.192-0.593,0.261-0.896l72.262-315.609C323.547,95.477,322.979,92.985,321.461,91.08z M268.403,264.634l-3.944-3.944
		l6.286-6.286L268.403,264.634z M286.468,149.87l-21.894-21.894l21.663-21.663l14.984,14.984l-4.104,17.923L286.468,149.87z
		 M142.985,139.217l-4.188-18.292l14.842-14.842l22.125,22.125l-21.894,21.894L142.985,139.217z M187.077,139.521l21.663,21.663
		l-21.894,21.894l-21.663-21.663L187.077,139.521z M198.39,128.207l21.894-21.894l21.663,21.663l-21.894,21.894L198.39,128.207z
		 M175.533,194.391l-16.205,16.205l-8.072-35.254l2.613-2.613L175.533,194.391z M186.846,205.705l21.894,21.894l-21.663,21.663
		l-21.894-21.894L186.846,205.705z M220.053,238.911l21.778,21.778l-21.663,21.663l-21.778-21.778L220.053,238.911z
		 M231.367,227.598l21.894-21.894l21.778,21.778l-21.894,21.894L231.367,227.598z M220.053,216.285l-21.894-21.894l21.894-21.894
		l21.894,21.894L220.053,216.285z M231.367,161.184l21.894-21.894l21.894,21.894l-21.894,21.894L231.367,161.184z M253.261,116.663
		l-12.597-12.597h25.195L253.261,116.663z M187.077,116.894l-12.828-12.828h25.656L187.077,116.894z M169.289,254.101l6.474,6.474
		l-4.062,4.062L169.289,254.101z M187.077,271.888l21.778,21.778l-22.124,22.124l-4.302-4.302l-6.512-28.441L187.077,271.888z
		 M189.148,340.835l19.361,19.361l-12.147,12.147L189.148,340.835z M198.044,327.104l22.124-22.124l21.778,21.778l-22.124,22.125
		L198.044,327.104z M251.092,340.24l-7.436,32.476l-12.52-12.52L251.092,340.24z M257.811,310.895
		c-0.003,0.003-0.006,0.005-0.009,0.008l-4.542,4.542l-21.778-21.778l21.663-21.663l11.042,11.042L257.811,310.895z
		 M264.574,194.391l21.894-21.894l2.466,2.466l-8.158,35.63L264.574,194.391z M219.898,16c41.435,0,75.607,31.665,79.604,72.066
		H140.294C144.291,47.665,178.464,16,219.898,16z M220.088,424.104c-6.034,0-11.847-5.623-15.243-14.708l-4.268-18.64l19.245-19.245
		l19.618,19.618l-4.187,18.286C231.913,418.487,226.128,424.104,220.088,424.104z"/>
	<path d="M233.617,49.987c12.662,3.769,23.323,12.731,29.249,24.589c1.401,2.804,4.227,4.426,7.163,4.426
		c1.202,0,2.422-0.272,3.57-0.846c3.952-1.975,5.555-6.78,3.58-10.732c-7.896-15.801-22.11-27.746-38.997-32.772
		c-4.236-1.262-8.69,1.15-9.95,5.385C226.971,44.272,229.382,48.727,233.617,49.987z"/>
</g>
<g>
</g>
<g>
</g>
<g>
</g>
<g>
</g>
<g>
</g>
<g>
</g>
<g>
</g>
<g>
</g>
<g>
</g>
<g>
</g>
<g>
</g>
<g>
</g>
<g>
</g>
<g>
</g>
<g>
</g>
</svg>
