<?xml version="1.0" encoding="iso-8859-1"?>
<!-- Generator: Adobe Illustrator 19.0.0, SVG Export Plug-In . SVG Version: 6.00 Build 0)  -->
<svg version="1.1" id="Capa_1" xmlns="http://www.w3.org/2000/svg" xmlns:xlink="http://www.w3.org/1999/xlink" x="0px" y="0px"
	 viewBox="0 0 448 448" style="enable-background:new 0 0 448 448;" xml:space="preserve">
<g>
	<path d="M392.121,63.611l-23.417-19.514C360.563,37.313,345.888,32,335.292,32H248v-8c0-13.233-10.767-24-24-24
		c-13.234,0-24,10.767-24,24v8h-80c-13.233,0-24,10.767-24,24v48c0,13.233,10.767,24,24,24h80v16h-87.292
		c-10.596,0-25.273,5.313-33.413,12.098l-23.417,19.514c-5.051,4.21-7.949,10.183-7.949,16.389s2.897,12.179,7.949,16.389
		l23.417,19.514c8.14,6.784,22.817,12.098,33.413,12.098H200v192h-8c-4.418,0-8,3.582-8,8s3.582,8,8,8h64c4.418,0,8-3.582,8-8
		s-3.582-8-8-8h-8V240h80c13.233,0,24-10.767,24-24v-48c0-13.233-10.767-24-24-24h-80v-16h87.292
		c10.596,0,25.271-5.313,33.412-12.098l23.417-19.514c5.052-4.209,7.949-10.183,7.949-16.389S397.173,67.82,392.121,63.611z M216,24
		c0-4.411,3.589-8,8-8s8,3.589,8,8v8h-16V24z M232,432h-16V240h16V432z M336,168v48c0,4.411-3.589,8-8,8H112.708
		c-6.98,0-17.808-3.92-23.17-8.389l-23.417-19.514c-1.414-1.178-2.192-2.633-2.192-4.098s0.778-2.92,2.192-4.098l23.417-19.514
		c5.362-4.469,16.189-8.389,23.17-8.389H328C332.411,160,336,163.589,336,168z M232,144h-16v-16h16V144z M381.879,84.098
		l-23.417,19.514c-5.363,4.469-16.19,8.389-23.17,8.389H120c-4.411,0-8-3.589-8-8V56c0-4.411,3.589-8,8-8h215.292
		c6.979,0,17.807,3.92,23.17,8.389l23.417,19.514c1.413,1.178,2.191,2.634,2.191,4.098S383.292,82.92,381.879,84.098z"/>
	<path d="M168,200h136c4.418,0,8-3.582,8-8s-3.582-8-8-8H168c-4.418,0-8,3.582-8,8S163.582,200,168,200z"/>
	<path d="M96,192c0,4.418,3.582,8,8,8h32c4.418,0,8-3.582,8-8s-3.582-8-8-8h-32C99.582,184,96,187.582,96,192z"/>
	<path d="M344,72h-88c-4.418,0-8,3.582-8,8s3.582,8,8,8h88c4.418,0,8-3.582,8-8S348.418,72,344,72z"/>
	<path d="M224,72h-80c-4.418,0-8,3.582-8,8s3.582,8,8,8h80c4.418,0,8-3.582,8-8S228.418,72,224,72z"/>
</g>
<g>
</g>
<g>
</g>
<g>
</g>
<g>
</g>
<g>
</g>
<g>
</g>
<g>
</g>
<g>
</g>
<g>
</g>
<g>
</g>
<g>
</g>
<g>
</g>
<g>
</g>
<g>
</g>
<g>
</g>
</svg>
