<?xml version="1.0" encoding="iso-8859-1"?>
<!-- Generator: Adobe Illustrator 19.0.0, SVG Export Plug-In . SVG Version: 6.00 Build 0)  -->
<svg version="1.1" id="Capa_1" xmlns="http://www.w3.org/2000/svg" xmlns:xlink="http://www.w3.org/1999/xlink" x="0px" y="0px"
	 viewBox="0 0 448 448" style="enable-background:new 0 0 448 448;" xml:space="preserve">
<g>
	<path d="M440,68H224c-4.418,0-8,3.582-8,8s3.582,8,8,8h208v320H16V84h49.814C64.641,89.15,64,94.5,64,100
		c0,67.308,64.969,109.025,67.734,110.769C133.038,211.59,134.519,212,136,212s2.962-0.41,4.266-1.231
		c2.539-1.601,57.51-36.904,66.491-94.769H318.36c-3.434,16.572-20.38,31.858-36.837,46.691
		c-23.215,20.927-49.528,44.645-36.924,75.347c6.07,14.785,17.697,18.617,28.941,22.323c10.623,3.501,22.663,7.469,35.659,21.148
		c13.204,13.898,29.851,21.223,47.756,21.222c3.74,0,7.538-0.319,11.367-0.966c11.687-1.972,22.889-6.904,31.677-13.5v31.933
		c-4.189,2.243-15.253,7.595-29.218,9.872c-22.98,3.75-42.923-2.26-59.258-17.857c-23.035-21.996-45.379-23.949-66.986-25.837
		c-21.519-1.881-43.771-3.825-70.486-25.58C126.965,222.455,100.278,218.875,48,217.182V108c0-4.418-3.582-8-8-8s-8,3.582-8,8v272
		c0,4.418,3.582,8,8,8h368c4.418,0,8-3.582,8-8V172c0-4.418-3.582-8-8-8s-8,3.582-8,8v93.103
		c-5.744,10.443-21.624,18.74-34.339,20.885c-11.849,2.003-29.251,0.934-44.861-15.498c-15.767-16.597-31.074-21.642-42.251-25.325
		c-11.009-3.628-16.008-5.554-19.148-13.203c-7.766-18.918,7.225-34.3,32.836-57.386c19.377-17.465,39.346-35.483,42.359-58.576H344
		c4.418,0,8-3.582,8-8s-3.582-8-8-8H208c0-39.701-32.299-72-72-72c-28.21,0-52.669,16.316-64.472,40H8c-4.418,0-8,3.582-8,8v336
		c0,4.418,3.582,8,8,8h432c4.418,0,8-3.582,8-8V76C448,71.582,444.418,68,440,68z M48,372V233.191
		c51.562,1.696,73.256,5.249,115.948,40.012c30.529,24.859,56.385,27.119,79.196,29.112c20.582,1.799,38.356,3.353,57.331,21.471
		c16.151,15.423,35.807,23.351,57.523,23.351c5.208,0,10.535-0.456,15.96-1.374c10.584-1.791,19.629-5.022,26.041-7.812V372H48z
		 M136,44c30.879,0,56,25.121,56,56c0,49.134-42.258,84.163-56.009,94.258C122.229,184.192,80,149.279,80,100
		C80,69.121,105.121,44,136,44z"/>
	<path d="M408,148c4.418,0,8-3.582,8-8v-32c0-4.418-3.582-8-8-8h-32c-4.418,0-8,3.582-8,8s3.582,8,8,8h24v24
		C400,144.418,403.582,148,408,148z"/>
	<path d="M357.491,158.193c-0.136-0.129-0.272-0.258-0.417-0.377c-0.104-0.086-0.214-0.161-0.322-0.24
		c-0.102-0.076-0.202-0.156-0.308-0.227c-0.118-0.079-0.241-0.148-0.362-0.22c-0.104-0.062-0.205-0.127-0.311-0.184
		c-0.118-0.063-0.24-0.117-0.36-0.174c-0.117-0.055-0.232-0.113-0.351-0.163c-0.113-0.047-0.228-0.084-0.342-0.125
		c-0.132-0.048-0.263-0.098-0.399-0.139c-0.109-0.033-0.221-0.057-0.331-0.085c-0.142-0.036-0.283-0.076-0.428-0.105
		c-0.121-0.024-0.244-0.038-0.366-0.056c-0.136-0.021-0.27-0.046-0.408-0.059c-0.202-0.02-0.405-0.026-0.607-0.031
		C352.117,156.008,352.06,156,352,156s-0.117,0.008-0.177,0.009c-0.203,0.005-0.405,0.011-0.607,0.031
		c-0.138,0.013-0.272,0.039-0.408,0.059c-0.122,0.018-0.245,0.032-0.366,0.056c-0.145,0.029-0.286,0.068-0.428,0.105
		c-0.11,0.028-0.222,0.052-0.331,0.085c-0.136,0.041-0.267,0.092-0.399,0.139c-0.114,0.041-0.229,0.079-0.342,0.125
		c-0.12,0.05-0.235,0.108-0.351,0.163c-0.121,0.057-0.242,0.111-0.36,0.174c-0.106,0.057-0.208,0.122-0.311,0.184
		c-0.121,0.072-0.244,0.141-0.362,0.22c-0.106,0.071-0.206,0.15-0.308,0.227c-0.108,0.08-0.217,0.155-0.322,0.24
		c-0.145,0.119-0.281,0.248-0.417,0.377c-0.054,0.051-0.113,0.097-0.166,0.15l-16,16c-3.124,3.125-3.124,8.189,0,11.314
		c1.563,1.562,3.609,2.343,5.657,2.343s4.095-0.781,5.657-2.343l2.343-2.343v9.371l-13.657,13.657
		c-3.124,3.125-3.124,8.189,0,11.314c1.563,1.562,3.609,2.343,5.657,2.343s4.095-0.781,5.657-2.343l2.343-2.343V236
		c0,4.418,3.582,8,8,8s8-3.582,8-8v-20.686l2.343,2.343c1.563,1.562,3.609,2.343,5.657,2.343s4.095-0.781,5.657-2.343
		c3.124-3.125,3.124-8.189,0-11.314L360,192.686v-9.371l2.343,2.343c1.563,1.562,3.609,2.343,5.657,2.343s4.095-0.781,5.657-2.343
		c3.124-3.125,3.124-8.189,0-11.314l-16-16C357.604,158.29,357.546,158.244,357.491,158.193z"/>
	<path d="M186.343,221.343c-3.124,3.125-3.124,8.189,0,11.314c1.563,1.562,3.609,2.343,5.657,2.343s4.095-0.781,5.657-2.343
		l2.343-2.343V251c0,4.418,3.582,8,8,8s8-3.582,8-8v-20.686l2.343,2.343c1.563,1.562,3.609,2.343,5.657,2.343
		s4.095-0.781,5.657-2.343c3.124-3.125,3.124-8.189,0-11.314L216,207.686v-9.371l2.343,2.343c1.563,1.562,3.609,2.343,5.657,2.343
		s4.095-0.781,5.657-2.343c3.124-3.125,3.124-8.189,0-11.314l-16-16c-0.053-0.053-0.112-0.099-0.166-0.15
		c-0.136-0.129-0.272-0.258-0.417-0.377c-0.104-0.086-0.214-0.161-0.322-0.24c-0.102-0.076-0.202-0.156-0.308-0.227
		c-0.118-0.079-0.241-0.148-0.362-0.22c-0.104-0.062-0.205-0.127-0.311-0.184c-0.118-0.063-0.24-0.117-0.36-0.174
		c-0.117-0.055-0.232-0.113-0.351-0.163c-0.113-0.047-0.228-0.084-0.342-0.125c-0.132-0.048-0.263-0.098-0.399-0.139
		c-0.109-0.033-0.221-0.057-0.331-0.085c-0.142-0.036-0.283-0.076-0.428-0.105c-0.121-0.024-0.244-0.038-0.366-0.056
		c-0.136-0.021-0.27-0.046-0.408-0.059c-0.202-0.02-0.405-0.026-0.607-0.031C208.117,171.008,208.06,171,208,171
		s-0.117,0.008-0.177,0.009c-0.203,0.005-0.405,0.011-0.607,0.031c-0.138,0.013-0.272,0.039-0.408,0.059
		c-0.122,0.018-0.245,0.032-0.366,0.056c-0.145,0.029-0.286,0.068-0.428,0.105c-0.11,0.028-0.222,0.052-0.331,0.085
		c-0.136,0.041-0.267,0.092-0.399,0.139c-0.114,0.041-0.229,0.079-0.342,0.125c-0.12,0.05-0.235,0.108-0.351,0.163
		c-0.121,0.057-0.242,0.111-0.36,0.174c-0.106,0.057-0.208,0.122-0.311,0.184c-0.121,0.072-0.244,0.141-0.362,0.22
		c-0.106,0.071-0.206,0.15-0.308,0.227c-0.108,0.08-0.217,0.155-0.322,0.24c-0.145,0.119-0.281,0.248-0.417,0.377
		c-0.054,0.051-0.113,0.097-0.166,0.15l-16,16c-3.124,3.125-3.124,8.189,0,11.314c1.563,1.562,3.609,2.343,5.657,2.343
		s4.095-0.781,5.657-2.343l2.343-2.343v9.371L186.343,221.343z"/>
	<path d="M136,140c22.056,0,40-17.944,40-40c0-3.383-0.424-6.746-1.261-9.994c-1.101-4.279-5.469-6.857-9.741-5.753
		c-4.279,1.102-6.854,5.463-5.753,9.741C159.746,95.941,160,97.962,160,100c0,13.233-10.767,24-24,24s-24-10.767-24-24
		s10.767-24,24-24c2.038,0,4.059,0.254,6.006,0.755c4.28,1.103,8.641-1.473,9.741-5.753c1.102-4.278-1.474-8.64-5.753-9.741
		C142.746,60.424,139.383,60,136,60c-22.056,0-40,17.944-40,40S113.944,140,136,140z"/>
</g>
<g>
</g>
<g>
</g>
<g>
</g>
<g>
</g>
<g>
</g>
<g>
</g>
<g>
</g>
<g>
</g>
<g>
</g>
<g>
</g>
<g>
</g>
<g>
</g>
<g>
</g>
<g>
</g>
<g>
</g>
</svg>
