<?xml version="1.0" encoding="iso-8859-1"?>
<!-- Generator: Adobe Illustrator 19.0.0, SVG Export Plug-In . SVG Version: 6.00 Build 0)  -->
<svg version="1.1" id="Capa_1" xmlns="http://www.w3.org/2000/svg" xmlns:xlink="http://www.w3.org/1999/xlink" x="0px" y="0px"
	 viewBox="0 0 445 445" style="enable-background:new 0 0 445 445;" xml:space="preserve">
<path d="M413.379,121.337c-16.799-21.462-42.205-38.608-71.95-49.038c7.589-9.358,13.622-19.393,17.685-29.488
	c0.865-2.15,0.755-4.571-0.302-6.634s-2.956-3.566-5.207-4.121c-24.989-6.154-54.298-3.102-82.195,8.28
	c-4.613-15.366-13.672-28.863-26.118-38.63c-2.27-1.782-5.323-2.203-7.991-1.101c-14.551,6.007-26.927,16.53-35.527,30.023
	c-23.739-18.419-51.06-29.232-76.716-30.063c-2.341-0.076-4.553,0.858-6.127,2.559c-1.576,1.701-2.336,4.001-2.085,6.305
	c1.171,10.724,4.22,21.913,8.924,32.88C93.8,44.114,64.189,53.803,41.899,70.151c-1.869,1.371-3.052,3.485-3.241,5.795
	c-0.19,2.31,0.631,4.589,2.252,6.247c7.406,7.577,16.099,14.398,25.888,20.377c-15.187,12.421-27.512,26.883-35.923,42.529
	c-1.098,2.042-1.256,4.459-0.434,6.626c0.822,2.167,2.544,3.872,4.72,4.671c14.653,5.386,30.97,8.116,48.497,8.116
	c21.577,0,44.377-4.323,65.933-12.502c16.604-6.3,31.921-14.633,45.353-24.483c-32.669,106.081-32.115,244.821-31.891,299.959
	c0.002,0.52,0.004,1.012,0.006,1.514h-7.979c-4.418,0-8,3.582-8,8s3.582,8,8,8h16h40h16c4.418,0,8-3.582,8-8s-3.582-8-8-8h-8.348
	c-3.755-84.123-1.817-162.662,5.802-233.52c4.119-38.311,8.977-65.598,12.5-82.36c11.893,21.592,29.714,41.754,51.797,58.075
	c31.005,22.917,66.33,35.537,99.468,35.538h0.001c3.203,0,6.403-0.124,9.511-0.368c2.312-0.182,4.43-1.356,5.808-3.221
	c1.378-1.864,1.879-4.234,1.375-6.497c-3.901-17.492-11.968-34.9-23.389-51.087c10.675-3.081,20.553-7.22,29.472-12.363
	c2.008-1.158,3.415-3.13,3.857-5.405C415.374,125.518,414.808,123.163,413.379,121.337z M340.061,45.771
	c-4,7.407-9.204,14.682-15.382,21.486c-3.588-0.907-7.22-1.724-10.896-2.438c-16.952-3.292-33.901-4.324-50.212-3.151
	c0.688-0.366,1.369-0.741,2.065-1.098C290.337,47.918,316.908,42.714,340.061,45.771z M239.06,17.401
	c8.531,7.892,14.656,18.216,17.675,29.784c-8.446,4.44-16.4,9.521-23.751,15.188c-5.588-7.502-11.924-14.596-18.917-21.197
	C220.101,30.919,228.773,22.665,239.06,17.401z M202.037,51.807c0.763,0.707,1.503,1.429,2.249,2.148
	c-15.935-5.961-33.222-9.802-51.218-11.281c-3.265-0.269-6.519-0.446-9.761-0.554c-4.067-8.17-7.083-16.527-8.919-24.689
	C157.512,20.752,181.678,32.945,202.037,51.807z M59.476,77.654c24.821-14.968,57.841-21.865,92.281-19.034
	c5.725,0.47,11.361,1.213,16.896,2.188c-16.424,1.619-33.178,5.569-49.241,11.664c-13.874,5.264-26.849,11.948-38.579,19.748
	C72.94,87.902,65.784,83.029,59.476,77.654z M143.914,137.05c-19.762,7.498-40.599,11.461-60.257,11.461
	c-11.982,0-23.272-1.409-33.69-4.197c15.968-24.193,42.816-44.625,75.121-56.882c19.762-7.498,40.599-11.461,60.257-11.461
	c11.982,0,23.272,1.409,33.69,4.197C203.068,104.361,176.219,124.794,143.914,137.05z M202.7,429h-23.642
	c-0.002-0.517-0.004-1.043-0.006-1.579c-0.217-53.618-0.873-216.601,40.491-321.96c1.287-1.423,2.542-2.863,3.76-4.32
	C215.184,136.518,194.63,246.788,202.7,429z M298.34,158.329c-27.781-20.534-48.104-47.466-56.937-75.072
	c28.929,0.389,61.086,12.146,88.481,32.395c27.78,20.534,48.103,47.466,56.936,75.072
	C357.893,190.334,325.735,178.576,298.34,158.329z M370.867,131.844c-9.108-10.536-19.682-20.345-31.472-29.059
	c-14.053-10.387-28.995-18.65-44.217-24.591c5.167,0.552,10.358,1.322,15.555,2.331c33.915,6.587,63.847,22.159,83.695,43.283
	C387.168,127.154,379.283,129.842,370.867,131.844z"/>
<g>
</g>
<g>
</g>
<g>
</g>
<g>
</g>
<g>
</g>
<g>
</g>
<g>
</g>
<g>
</g>
<g>
</g>
<g>
</g>
<g>
</g>
<g>
</g>
<g>
</g>
<g>
</g>
<g>
</g>
</svg>
