<?xml version="1.0" encoding="iso-8859-1"?>
<!-- Generator: Adobe Illustrator 19.0.0, SVG Export Plug-In . SVG Version: 6.00 Build 0)  -->
<svg version="1.1" id="Capa_1" xmlns="http://www.w3.org/2000/svg" xmlns:xlink="http://www.w3.org/1999/xlink" x="0px" y="0px"
	 viewBox="0 0 472 472" style="enable-background:new 0 0 472 472;" xml:space="preserve">
<path d="M397.043,406.829c-4.509-4.403-10.463-6.829-16.766-6.829c-6.52,0-12.619,2.569-17.172,7.233
	c-11.943,12.23-25.881,15.699-38.87,16.532c-1.244-140.63-34.057-246.601-53.771-297.766
	c-14.108-36.616-30.014-67.924-45.997-90.538C207.837,11.931,192.783,0,179.723,0c-11.599,0-21.748,12.895-33.935,43.118
	c-8.962,22.225-18.612,53.091-28.682,91.74c-18.876,72.451-34.533,154.771-40.279,198.829c-0.224,1.143-0.935,5.028-1.098,8.984
	c-1.052,25.59,13.544,34.827,25.974,38.069c0.025,0.006,0.05,0.008,0.074,0.014c0.302,0.075,0.609,0.139,0.925,0.179l0.001,0
	c0.01,0.001,0.02,0.002,0.03,0.004l164.989,21.213V424h-176c-13.234,0-24,10.766-24,24v16c0,4.418,3.582,8,8,8h240.553
	c12.533,0,50.673,0,81.171-31.232c4.479-4.587,6.904-10.643,6.828-17.053S401.63,411.307,397.043,406.829z M91.717,343.329
	c0.131-3.193,0.837-6.689,0.843-6.717c0.02-0.099,0.029-0.198,0.045-0.296c0.016-0.095,0.039-0.188,0.052-0.284
	c5.316-40.906,19.739-118.726,38.842-192.924C161.78,25.489,178.385,16.582,179.9,16.004c2.311,0.092,12.73,2.133,31.501,28.691
	c15.232,21.551,30.493,51.655,44.133,87.056c14.968,38.849,37.641,109.966,47.666,204.249H163.723c-4.418,0-8,3.582-8,8s3.582,8,8,8
	h141.034c1.118,12.658,1.999,25.703,2.6,39.116l-202.006-25.972C95.293,362.378,91.203,355.834,91.717,343.329z M283.723,404.208
	l24.216,3.114c0.148,5.502,0.249,11.062,0.298,16.678h-24.514V404.208z M386,429.589C360.21,456,327.142,456,316.276,456H83.723v-8
	c0-4.411,3.589-8,8-8h224.553c17.317,0,39.591-2.454,58.277-21.589c1.518-1.555,3.551-2.411,5.725-2.411
	c2.1,0,4.084,0.808,5.587,2.276c1.529,1.493,2.385,3.492,2.411,5.628S387.493,428.06,386,429.589z"/>
<g>
</g>
<g>
</g>
<g>
</g>
<g>
</g>
<g>
</g>
<g>
</g>
<g>
</g>
<g>
</g>
<g>
</g>
<g>
</g>
<g>
</g>
<g>
</g>
<g>
</g>
<g>
</g>
<g>
</g>
</svg>
