<?xml version="1.0" encoding="iso-8859-1"?>
<!-- Generator: Adobe Illustrator 19.0.0, SVG Export Plug-In . SVG Version: 6.00 Build 0)  -->
<svg version="1.1" id="Capa_1" xmlns="http://www.w3.org/2000/svg" xmlns:xlink="http://www.w3.org/1999/xlink" x="0px" y="0px"
	 viewBox="0 0 480 480" style="enable-background:new 0 0 480 480;" xml:space="preserve">
<g>
	<path d="M160.825,243.543l-27-2.8c-4.401-0.45-8.327,2.738-8.783,7.132c-0.456,4.395,2.738,8.327,7.132,8.783l27,2.8
		c0.281,0.029,0.559,0.043,0.835,0.043c4.047,0,7.521-3.061,7.948-7.175C168.413,247.931,165.22,243.999,160.825,243.543z"/>
	<path d="M477.657,314.843c-3.124-3.124-8.189-3.124-11.313,0l-12,12c-4.033,4.032-20.57,9.657-38.343,9.657h-32v-24h8
		c17.645,0,32-14.355,32-32v-8c0-16.416-11.819-34.34-26.908-40.807l-67.881-29.092c-0.929-0.398-1.909-0.789-2.916-1.173
		c-27.914-47.697-57.078-71.205-58.315-72.188c-1.416-1.126-3.171-1.739-4.98-1.739h-15c-2.617,0-5.068,1.28-6.564,3.427
		c-1.496,2.147-1.847,4.89-0.941,7.344l20.023,54.229H240c-10.468,0-25.227,4.92-33.6,11.2l-6.4,4.8
		c-4.972,3.729-14.681,6.763-21.643,6.763c-0.577,0-1.128-0.021-1.637-0.063l-63.968-5.331c-5.562-0.678-9.802-3.283-15.162-6.574
		C89.758,198.485,80.012,192.5,64,192.5c-17.645,0-32,14.355-32,32v33c0,8.079,3.066,15.746,8.09,21.782
		c-9.283,4.156-22.431,10.679-28.669,16.749C3.842,303.404,0,311.637,0,320.5c0,17.645,14.355,32,32,32
		c0.169,0,0.334-0.015,0.5-0.025c0.166,0.01,0.331,0.025,0.5,0.025h118c17.119,0,40.341-5.027,49.657-14.343
		c5.738-5.737,22.477-24.601,27.752-30.564l26.937,2.582c13.383,1.283,35.209,2.326,48.654,2.326h64v24h-72c-4.418,0-8,3.582-8,8
		s3.582,8,8,8h120c17.119,0,40.341-5.027,49.657-14.343l12-12C480.781,323.033,480.781,317.967,477.657,314.843z M259.482,143.5
		h0.584c5.983,5.247,24.231,22.384,43.496,51.638c-8.37-1.641-16.772-2.638-23.562-2.638h-2.426L259.482,143.5z M189.343,326.843
		c-4.033,4.032-20.57,9.657-38.343,9.657H33c-0.169,0-0.334,0.015-0.5,0.025c-0.166-0.01-0.331-0.025-0.5-0.025
		c-8.822,0-16-7.178-16-16c0-4.38,2.213-8.754,6.579-13.002c5.458-5.311,22.955-13.419,32.985-17.408
		c2.423,0.842,4.955,1.413,7.563,1.663l145.557,13.949C201.786,313.433,192.982,323.205,189.343,326.843z M256.872,294.247
		L64.654,275.826C55.626,274.961,48,266.568,48,257.5v-13.342c4.486,3.082,9.72,5.077,15.095,5.592l35.11,3.511
		c0.271,0.027,0.539,0.04,0.806,0.04c4.06,0,7.538-3.079,7.951-7.205c0.439-4.396-2.768-8.316-7.165-8.756l-35.143-3.514
		c-4.832-0.463-9.611-3.435-12.176-7.571c-2.123-3.421-2.46-7.089-1.004-10.9c0.152-0.397,0.26-0.799,0.345-1.203
		C54.755,210.7,59.123,208.5,64,208.5c11.491,0,18.159,4.094,25.218,8.429c6.229,3.825,12.671,7.781,21.801,8.846
		c0.087,0.01,0.174,0.019,0.262,0.026l64.111,5.343c0.949,0.079,1.947,0.119,2.966,0.119c10.407,0,23.546-4.19,31.243-9.963l6.4-4.8
		c5.682-4.262,16.897-8,24-8h40c12.119,0,31.769,4.033,42.908,8.807l67.881,29.092c1.013,0.434,2.008,0.984,2.984,1.606
		l-151.049-14.472c-17.875-1.625-26.624,4.25-28.871,6.076c-5.68,4.175-16.67,7.463-23.188,6.919
		c-4.413-0.37-8.27,2.905-8.637,7.308s2.905,8.27,7.308,8.637c10.445,0.877,25.498-3.597,34.265-10.172
		c0.279-0.21,0.228-0.136,0.379-0.287c0.845-0.548,6.069-3.567,17.258-2.55l165.533,15.859c0.781,2.425,1.23,4.86,1.23,7.177v8
		c0,8.822-7.178,16-16,16h-88C290.977,296.5,269.835,295.489,256.872,294.247z"/>
	<path d="M32,312.5c-2.11,0-4.17,0.85-5.66,2.34c-1.49,1.49-2.34,3.55-2.34,5.66c0,2.11,0.85,4.17,2.34,5.66
		c1.49,1.49,3.56,2.34,5.66,2.34c2.11,0,4.17-0.85,5.66-2.34c1.49-1.49,2.34-3.55,2.34-5.66c0-2.1-0.85-4.17-2.34-5.66
		C36.17,313.35,34.11,312.5,32,312.5z"/>
	<path d="M136,328.5c2.11,0,4.17-0.85,5.66-2.34c1.49-1.49,2.34-3.55,2.34-5.66c0-2.11-0.85-4.17-2.34-5.66
		c-1.49-1.49-3.56-2.34-5.66-2.34c-2.1,0-4.17,0.85-5.66,2.34c-1.49,1.49-2.34,3.55-2.34,5.66c0,2.1,0.85,4.17,2.34,5.66
		C131.83,327.65,133.89,328.5,136,328.5z"/>
	<path d="M112,328.5c2.1,0,4.17-0.85,5.66-2.34c1.49-1.49,2.34-3.55,2.34-5.66c0-2.1-0.85-4.17-2.34-5.66
		c-1.49-1.49-3.55-2.34-5.66-2.34c-2.11,0-4.17,0.85-5.66,2.34c-1.49,1.49-2.34,3.55-2.34,5.66c0,2.11,0.85,4.17,2.34,5.66
		C107.83,327.65,109.89,328.5,112,328.5z"/>
</g>
<g>
</g>
<g>
</g>
<g>
</g>
<g>
</g>
<g>
</g>
<g>
</g>
<g>
</g>
<g>
</g>
<g>
</g>
<g>
</g>
<g>
</g>
<g>
</g>
<g>
</g>
<g>
</g>
<g>
</g>
</svg>
