<?xml version="1.0" encoding="iso-8859-1"?>
<!-- Generator: Adobe Illustrator 19.0.0, SVG Export Plug-In . SVG Version: 6.00 Build 0)  -->
<svg version="1.1" id="Capa_1" xmlns="http://www.w3.org/2000/svg" xmlns:xlink="http://www.w3.org/1999/xlink" x="0px" y="0px"
	 viewBox="0 0 456.889 456.889" style="enable-background:new 0 0 456.889 456.889;" xml:space="preserve">
<path d="M378.646,363.834l-87.177-106.945h64.976c0.006,0,0.014,0,0.02,0c4.419,0,8-3.582,8-8c0-2.107-0.814-4.024-2.146-5.453
	l-74.401-90.547h52.527c0.01,0,0.014,0,0.02,0c4.419,0,8-3.582,8-8c0-2.101-0.81-4.014-2.135-5.441L234.636,2.934
	C233.116,1.077,230.844,0,228.444,0s-4.672,1.077-6.191,2.934l-112,136.889c-1.958,2.393-2.361,5.698-1.038,8.492
	c1.324,2.793,4.139,4.574,7.229,4.574h52.526L94.264,243.81c-1.965,2.391-2.374,5.699-1.053,8.497
	c1.322,2.797,4.14,4.582,7.233,4.582h64.976L78.243,363.834c-1.951,2.394-2.351,5.697-1.025,8.487
	c1.325,2.79,4.138,4.567,7.227,4.567h120v72c0,4.418,3.582,8,8,8h32c4.418,0,8-3.582,8-8v-72h120c3.089,0,5.901-1.778,7.227-4.567
	C380.996,369.531,380.597,366.228,378.646,363.834z M236.444,440.889h-16v-64h16V440.889z M101.287,360.889l84.776-104h22.231
	l-62.768,76.39c-2.806,3.414-2.312,8.455,1.102,11.26c1.489,1.223,3.287,1.819,5.074,1.819c2.312,0,4.604-0.996,6.186-2.921
	l71.115-86.548h15.442c4.418,0,8-3.582,8-8s-3.582-8-8-8h-62.182h-1.818h-63.072l72.307-88h20.978l-50.393,61.33
	c-2.806,3.414-2.312,8.455,1.102,11.26c1.489,1.223,3.287,1.819,5.074,1.819c2.312,0,4.604-0.997,6.186-2.921l58.739-71.487h13.08
	c4.418,0,8-3.582,8-8s-3.582-8-8-8h-16.868c-0.003,0-0.007,0-0.01,0h-41.668h-5.454h-47.118l95.118-116.255l11.735,14.343
	l-61.916,75.353c-2.806,3.414-2.312,8.455,1.102,11.26c1.489,1.223,3.287,1.819,5.074,1.819c2.312,0,4.604-0.997,6.186-2.921
	l59.886-72.883l73.051,89.284h-52.573c-3.094,0-5.911,1.784-7.233,4.582c-1.321,2.798-0.912,6.106,1.053,8.498l74.708,90.921
	h-64.891c-3.089,0-5.901,1.778-7.227,4.567c-1.325,2.79-0.926,6.093,1.025,8.487l87.177,106.945H101.287z"/>
<g>
</g>
<g>
</g>
<g>
</g>
<g>
</g>
<g>
</g>
<g>
</g>
<g>
</g>
<g>
</g>
<g>
</g>
<g>
</g>
<g>
</g>
<g>
</g>
<g>
</g>
<g>
</g>
<g>
</g>
</svg>
