<svg xmlns="http://www.w3.org/2000/svg" viewBox="0 0 200 200"><path d="M108.096.992l.673 2.029.179 1.94 1.794 1.127.718 1.037.942.406.673-.18 2.153-1.624 1.121.09 2.153 2.841.404 2.345 1.614 1.128 1.436-.496 2.736 1.804-.045 1.398.179.315 3.588-.315.718-.542.718.091.538 1.578 1.39.496.359-.316.404.226-.718 3.292 1.436.812.044.315-1.166 1.669.045.406 1.884.18 2.198.18 2.332-.451.987-.992.987-2.705 1.166-1.083.538-.135.269.767-.493 1.533.224.812-.538 1.488.359.766.807 1.128-.135.766.359.542 1.75.135 2.556 2.119 1.794.587.628.766v.451l1.66.361 1.301 2.21 1.704-.496.583-.857h2.422l3.364 1.533.852-.225 1.705-1.579 2.691 1.128h.673l4.216 5.276 1.659.766.673-.902 2.243.226 1.121 1.308 2.602-.361h1.166l1.749-1.037 1.391.361 2.825 1.803 4.8-.451 2.018.542 1.346 1.037-2.378 5.05-2.601 3.428-.224 2.886-.628 4.555-.987 3.562.09.913.269 3.777-.763 4.329.359 1.624 1.301 1.623-1.48 2.03-.09 1.037-1.884.721-1.929.226-.314.451-1.121-1.308-1.211.18-1.121.677-.852 2.074.134.361 1.48-.271.539.857-.09.767-1.749 2.615-.18 1.038-1.973 1.668-.494 1.894-3.633 2.075-.359 1.127.359 2.345-.493 1.398-2.019 1.308-1.839 3.247.045.631-.314.902-.269.721.09.857.942 1.398-.269 3.202-1.436.721-.448.948.269.676 2.557-.857 2.287-1.939-.134-.406-.763-.361-.359-1.217.628-1.353 1.166-1.218 4.62-1.217 2.377.451.18 1.849.942 1.172-.359 2.841.718 1.128 2.466 1.488 1.032 2.66-3.498 3.879.134.721.359.586 1.57.181 1.211 1.217.673 2.255 2.332 1.804.628 1.037-.314 1.398.314 1.218-1.032 1.037-1.256.812-1.076 1.984-.942.225-2.871-.225-1.031 1.082.717.947 1.705.541.269.767.359 1.894 1.345.722 1.66.09 2.018 2.435.18.902-1.211.812-.763.856v1.128l-.762 2.164 1.031 2.345v.812l.18.271 1.301 1.894 3.498 1.082 2.288 1.218 1.525-.316 2.601-.541 1.032-.722.762.181.359 1.127-.179 2.3-2.333 3.337v1.533l.538 1.263-.358.406-.236-.496-.897-.113-.392.225-.045.474-2.153 1.308-1.705 1.894-.134 1.668-1.077.226-.538.451-1.031-.181-.763 1.038.045.766.045.541-.359.677-2.153.451-2.332 3.653.628.586.852-.09.359.36-.628 1.308-.583.361-.942-.181-.808.677-.852-.18-.493.766-.539-.09-.852 1.037-1.794-.225-1.076.586-.494 1.218-.538.36-.224-.18.179-.631-.179-.316-1.077.225-1.704-1.037-.494.135-.358.316 1.031.541.09.316-.179.271-.539-.091-.717.496-.539-.496-.179-.496-.718-.36v-.677l-1.345-.18-.628-1.083-5.158.271v-.992l-.18-1.082-.314-1.398h-1.031l-2.243.992-1.884-.136v-.901l1.794-.542v-.856l-.762-1.128-.718-.451-.314.361-.179 1.668-.449.406-.673-.541-1.973.632-.269.27.942.947-.852.451-2.512.226-1.032.18-.314-.541.18-1.173-.718-.811-3.05.721-2.422-1.308-1.346-.676-.852-.631-2.512.676-4.709 3.563-1.974 2.705-3.454 1.038-.717.631-2.467 2.39-.628-.18-.852 1.127v.361h.852l.179-.181-.044 5.277-.045 1.984.269 4.239 1.031.857.494.36.717 1.669.27.676-.359.316-.852-.225-1.481-.947-2.467.18-3.319 1.804-1.973 1.217-3.678-1.307-2.243.27-1.704 1.353-1.166-.225-1.436-1.94-2.556-.721-.359-.541v-1.308l-1.256-1.037-3.229-.541-1.301.947-1.615-2.39-1.211-.271-1.57.631-.673-1.939-4.844-.586-.762-.18-1.57-.361-.673.541-.493 1.894-.987 1.488-1.121.045-1.346-.406-1.301-.315-.807.315-.583-.676-.852.225-1.032-.18-2.557 1.308-.897-.136-1.57-2.344-.224-.271-1.749-.18-1.166-.542-2.288.812-.852-.27-.942.766-1.794-2.164-.897-.767-.538-1.308-.628-.361-2.512.361-3.857-1.533-1.077-.541-1.704.27-1.122.587-.583-.226-.269-.451.359-.676.762-.632.09-2.66-.942-.992-1.39.18-1.211.631-1.794-1.488-1.301-1.308.628-.586.673-.451.493.135 2.288-2.615.717-1.037.897-2.435-.359-.857 1.75-5.502 1.839-12.086.134-.766.494-2.526.986-.451 1.256-.045.359-.631-1.749-2.345-.314-.09-1.301 2.796-.09.451-.269.045-.179-.947 1.57-14.205.448-5.547.583-.947.27-.181.448.361v1.037l2.557 1.894 1.794 2.075.717 2.615.763 3.112 1.032 1.894 1.121-.225-1.301-2.436-1.076-4.78-.314-1.263-2.019-3.246-4.844-3.383-1.211.632-.224-2.165.673-1.037.493-.586-.09-.857.359-.316.359.316.583-.812-.09-4.239-1.39-1.623h-.404v-1.083l.673-1.082.807-.361-.448-1.623-1.48.316v.541l-.763-.361-.583-.631-.538.541-3.185-1.849-1.3-.586-2.602-1.759-.852-2.571-4.62-5.186.314-.902 1.166-1.533.494-1.894 1.211.09-.808-1.488-1.884-.947-1.48-.27-.134-.136.942-.451-.18-1.894.763-.676 2.915.135 3.902 1.849.763-.18-6.1-2.796-1.705.361-1.749 1.488-1.435-.857-1.256.496-1.076-.631-.18-.181.404-.586-.18-.722-.852-.676.628-.586.763-.271.314-.766-.673-.767.987-.451.672-.09-.672-.406-1.66-.18-.673-.632-1.121 1.488H30.41l-.672.091-1.481-1.489.763-.27 1.929-.045.224-.632-.224-.676h-.628l-.404.045-.987-.586-.942.586-.583-.586-.359.18.359 1.533-2.063-.225-.179-.18-.27.721.359 1.714-.717.135-.494-3.021-.717-.767.538-.857.448-.27-.134-.406-.404-.316-1.211 1.263-1.256-.541.314-.406v-.541l-.269-.271-.673.361-.359.496-.583-.226-1.211-1.758-2.781.09.808-1.037-1.122-.451-.403 1.172-1.077-.18-.942-1.759-.493-.541-.538-.226-.538.361.269 1.037-.853.136-.852-.947.359-1.038-.09-.225h-.358l-.494 1.082.045.541-.359.181-.314-.271-.403.271.224 1.037-.763.225-2.063-.315-.269-.226.583-1.307-.314-.857-2.332-2.12-3.275-.586-.179-.18.673-.902 5.023-.542.583.542.853-.226.628-1.398-.628-1.398-1.705-.766-.942.541-.762.947-.269.09-.269-1.804-.853-.18-.224-.541.493-.496.494-.632.852.812 1.48.225.449.361 3.005-.586.09-.271-1.57-.36-.09-.812-1.973.316-.18-.136 1.256-.721 1.839-.722-.404-.361-5.068 1.308-2.288.496-.314-.225L0 63.224l.449-1.037-.09-2.525.852-.677 1.39-.406.584-.541 1.076.181.135-.181-.673-.631.673-.316h1.3l.853-.857.717-.135.224.812 1.077-.271.314.181.852-.857h1.525l.628-.631.628-.091.404 1.579.672-.361.628.812 2.961-1.669.224.496.493.135.897-1.082-.448-1.623 1.39-1.037.673.135.449.721 1.345-.541 1.256-.18.224.18v.812h.359l1.436-1.037.358.18.09.677.718-.091.314.271-.09.631.538.316.404-.271.852 1.759 1.077 1.263v.902l1.525 1.037.179.857.269.27.673-.721 2.512-2.165v-.406l.224-.18.538.361 1.615-.857.628.406v.451l-.449.496.09.27 1.032-.451.179.812.449.226.403-.226.269-.812 1.301.091.852 1.578.359-.18-.269-1.804.942-.812 1.301-.361.269.361-.269 1.127.493.451 3.364.181 1.256.586.897-.857h.538l.269-.361-.179-.451-.628-.225-1.525-2.525-.852-1.894.404-1.308.448-.181-.09-2.164-.762-.947-.135-3.202-3.005-3.968-.762-3.383.269-1.488-1.346-2.525.538-.406 2.153.676 1.301.361 1.032.496 1.3-.225.673-.902 2.871.451.538 1.217-.09.947-.538.542.987 2.841.538 1.127-.134 1.037.762.181.807-1.218 1.256-.496 4.755 1.308 3.453-.181 3.634 1.263 1.166-.361.672.136 4.62-3.022 1.256-.541.718-.271-.987-.496-2.915-.18-.404-.812 1.794-4.058 1.256-.587 2.332-2.164 3.409-1.669 2.691-.406 4.845-1.984 2.466-2.48.898-.947 1.39-2.029 2.063.676.269-.09v-.361l-2.242-2.39.224-1.173.538-.315-.583-1.308.493-2.751-.583-.812.135-4.329-.404-1.804 3.185-2.615 4.306-1.353 4.306-1.173 1.39-.676.942.992zM128.92 16.3l.28.83 1.52.55-.6 2.74 1.15.65-.69.99.25 2.18 3.1.3 2.42.2 2.98-.58 1.05-1.06.41.89.53.72-.13.74 1.09 1.65 2 .15 2.41 2 1.65.54.01.01v1.13l2.2.48 1.56 2.64 3.35-.97.44-.64h1.3l3.55 1.62 1.74-.46 1.27-1.18 2.07.87h.26l3.98 4.99 3.09 1.43.89-1.2.8.08 1.27 1.48 3.31-.46h1.47l1.57-.93.55.14 3.06 1.96 5.05-.48 1.46.39.16.12-1.8 3.82-2.77 3.65-.26 3.28-.61 4.42-1.03 3.73.11 1.17.26 3.57-.78 4.44.5 2.26.8 1-1.05 1.44-.05.52-.83.32-1.58.18-.82-.95-2.33.35-1.8 1.08-1.27 3.08.78 2.09.98-.18-1.26 1.88-.14.81-1.92 1.62-.45 1.75-3.59 2.05-.65 2.02.36 2.32-.2.56-1.9 1.23-2.24 3.96.05.77-.2.6-.39 1.04.17 1.57.85 1.27-.15 1.84-1.15.58-.95 2 1.04 2.6 4.17-1.4 3.28-2.78-.65-1.97-.74-.35-.01-.03.29-.61.7-.74 3.88-1.02.94.18.12 1.17.82 1.03-.35 2.75 1.2 1.88 2.33 1.4.51 1.32-3.37 3.75.32 1.72.88 1.45 1.78.2.57.58.7 2.35 2.5 1.93.17.28-.26 1.16.19.75-.32.31-1.44.93-.94 1.74-.06.01-3.35-.26-2.4 2.52 1.78 2.35 1.43.45.47 2.45 2.27 1.21 1.33.08 1.09 1.3-.36.24-1.26 1.43v1.44l-.88 2.48 1.14 2.6v.95l.44.66 1.6 2.33 3.86 1.2 2.64 1.4 2.06-.42 2.88-.6-.07.95-2.37 3.39v1.65l-1.27.72-.04.5-1.7 1.03-2.19 2.44-.09 1.05-.35.08-.29.24-1.26-.22-1.63 2.22.07 1.16-1.89.39-3.34 5.24.84.79-.43.37-1.15-.25-.52.81-.42-.07-.88 1.07-1.45-.19-1.87 1.02-.97.2-1.75-1.06-1.33.36v-.1l-1.92-.26-.72-1.24-4.57.24-.13-.78-.59-2.61h-2.55l-.51.23v-.64l-1.2-1.76-2.07-1.31-1.47 1.69-.07.65-2.57.82-1.51 1.52-.07.07.06.05.03.03-.04.01.01-.04.01-.12.05-.31-1.78-2.01-3.37.8-1.93-1.05-1.25-.62-1.34-.99-3.49.94-5.12 3.87-1.81 2.48-3.28.99-.99.87-1.87 1.81-.78-.23-1.78 2.35v2.37h1.02l-.03 3.57-.05 2.04.32 4.95.61.51-2.24.16-3.64 1.98-1.39.86-3.33-1.18-3.02.36-1.45 1.15-1.35-1.83-2.32-.65v-1.32l-2.11-1.75-4.25-.71-.55.41-1.08-1.6-2.25-.5-.54.22-.46-1.34-5.69-.69-.69-.16-2.28-.53-1.63 1.31-.55 2.13-.43.64-.1.01-1.15-.35-1.8-.43-.26.1-.5-.59-1.44.39-1.2-.22-2.42 1.24-1.16-1.74-.67-.8-2.11-.22-1.49-.69-2.39.84-1.15-.36-.41.34-.93-1.12-.72-.61-.6-1.45-1.52-.88-2.63.38-3.42-1.36-1.45-.73-1.29.21.1-3.02-1.9-2-2.41.32-.56.29-.68-.56 2.66-3.04.87-1.26 1.17-3.17-.37-.89 1.61-5.09 1.86-12.19.13-.73.34-1.76h.01l1.8-.07 1.26-2.21-2.64-3.54-1.12-.32 1.13-10.18.28-3.53 1.5 1.11 1.47 1.69.62 2.27.8 3.28 1.66 3.04 4.18-.84-2.15-4.04-1.04-4.6-.37-1.51-2.31-3.7-5.58-3.9.07-.11.13-.15.04.03.38-.54.29-.39 1.17-1.63-.12-5.28-1.64-1.92.07-.11 1.56-.7-1.17-4.23-2.8.6-1.05-1.14-.83.83-2.25-1.31-1.25-.56-2.07-1.4-.79-2.38-4.21-4.73 1.12-1.46.25-.98 2.7.21-2.34-4.32-2.18-1.1-.06-.61 1.72.08 4.11 1.95 5.52-1.31-10.52-4.82-2.56.54-1.22 1.04-1.15-.68-.81.32-.13-.55.19-.07.75-1.83 3.85-.52-4.61-2.78-1.49-.16-1.53-1.43-.3.4-.4-1.2h-1.78l-1.34-.79-.7.43-.51-.51-1.78.9-.46-1.41-1.83-1.43-.82.85-1.18-1.18-1.3.69-1.04-1.5-.4.02.07-.09-4.44-1.78-.18.53-.1-.19-.84-.92-1.59-.67-.26.18-.26-.66H8.95l-.74 1.62-.74.49-.4-1.11L5 70.99l.18-.02.68.64 2.35-.62 1.19-2.67-.82-1.84 1.45-.28.88-2.67-1.24-.29 1.4-.55-2.82-2.52-5.82 1.5-.49.11-.06-1.41.03-.03 1.45-.42.3-.28 1.26.21.93-1.26h.47l.06-.06.05.19 1.92-.48.78.46 1.23-1.24h1.17l.41 1.59 1.24-.67.65.84 3.03-1.71 1.57.43 2.02-2.43-.1-.34 1.83-.74v.69h2.35l.1-.07v.06l.61-.07L27 56.07l.4.81.84.99v1.14l1.68 1.15.14.7 1.69 1.69 1.68-1.81 2.06-1.78.08.06.61-.33.46 1.38 1.12-.49 1.48.74 1.27-.71.89 1.64 2.63-1.32-.11-.71.32.29 3.61.19 1.92.9 1.2-1.15h.69l1.22-1.64-.74-1.86-.76-.27-1.2-1.99-.59-1.3.03-.08.77-.31-.16-3.72-.76-.94-.13-3.18-3.1-4.09-.62-2.76.31-1.7-.25-.46.8.22 1.34.64 2.36-.41.49-.65 1.17.18.05.11v.02l-.82.83 1.32 3.8.38.81-.25 1.94 3.1.73 1.12-1.7.35-.14 4.51 1.24 3.4-.17 3.82 1.32 1.27-.39.91.18 5.02-3.29 1.11-.47 3.88-1.47-4.32-2.17-1.81-.11 1.03-2.34.96-.45 2.35-2.17 3-1.47 2.64-.4 5.29-2.17 2.7-2.71.99-1.04.82-1.2 1.47.48 1.76-.59v-2.03l-1.99-2.13.93-.54-.95-2.12.53-2.92-.66-.91.13-4.01-.25-1.09 2.25-1.84 4-1.26 4.41-1.2.51-.25.49 1.49.23 2.51 2.16 1.35.79 1.14 1.82.78 1.45-.39 1.87-1.4 1.48 1.95.44 2.6 2.76 1.93 1.46-.51 1.42.94-.04.98.87 1.52 4.92-.43zM55.79 123.54l.42-.51.29-.34v-.05" fill-rule="evenodd"/><g fill="#4BA04E"><path d="M120.313 153.063c0-5.52 4.48-10 10-10 5.519 0 10 4.48 10 10 0 5.519-4.481 10-10 10-5.52 0-10-4.481-10-10z" fill-opacity=".25"/><path d="M126.313 153.063c0-2.208 1.792-4 4-4 2.207 0 4 1.792 4 4 0 2.207-1.793 4-4 4-2.208 0-4-1.793-4-4z" fill-opacity=".5"/><path d="M127.813 153.063a2.5 2.5 0 0 1 5 0c0 1.379-1.121 2.5-2.5 2.5-1.38 0-2.5-1.121-2.5-2.5z"/></g></svg>