<svg xmlns="http://www.w3.org/2000/svg" viewBox="0 0 200 200">
    <path d=" M 108.096 0.992 L 108.769 3.021 L 108.948 4.961 L 110.742 6.088 L 111.46 7.125 L 112.402 7.531 L 113.075 7.351 L 115.228 5.727 L 116.349 5.817 L 118.502 8.658 L 118.906 11.003 L 120.52 12.131 L 121.956 11.635 L 124.692 13.439 L 124.647 14.837 L 124.826 15.152 L 128.414 14.837 L 129.132 14.295 L 129.85 14.386 L 130.388 15.964 L 131.778 16.46 L 132.137 16.144 L 132.541 16.37 L 131.823 19.662 L 133.259 20.474 L 133.303 20.789 L 132.137 22.458 L 132.182 22.864 L 134.066 23.044 L 136.264 23.224 L 138.596 22.773 L 139.583 21.781 L 140.57 19.076 L 141.736 17.993 L 142.274 17.858 L 142.543 18.625 L 142.05 20.158 L 142.274 20.97 L 141.736 22.458 L 142.095 23.224 L 142.902 24.352 L 142.767 25.118 L 143.126 25.66 L 144.876 25.795 L 147.432 27.914 L 149.226 28.501 L 149.854 29.267 L 149.854 29.718 L 151.514 30.079 L 152.815 32.289 L 154.519 31.793 L 155.102 30.936 L 157.524 30.936 L 160.888 32.469 L 161.74 32.244 L 163.445 30.665 L 166.136 31.793 L 166.809 31.793 L 171.025 37.069 L 172.684 37.835 L 173.357 36.933 L 175.6 37.159 L 176.721 38.467 L 179.323 38.106 L 180.489 38.106 L 182.238 37.069 L 183.629 37.43 L 186.454 39.233 L 191.254 38.782 L 193.272 39.324 L 194.618 40.361 L 192.24 45.411 L 189.639 48.839 L 189.415 51.725 L 188.787 56.28 L 187.8 59.842 L 187.89 60.755 L 188.159 64.532 L 187.396 68.861 L 187.755 70.485 L 189.056 72.108 L 187.576 74.138 L 187.486 75.175 L 185.602 75.896 L 183.673 76.122 L 183.359 76.573 L 182.238 75.265 L 181.027 75.445 L 179.906 76.122 L 179.054 78.196 L 179.188 78.557 L 180.668 78.286 L 181.207 79.143 L 181.117 79.91 L 179.368 82.525 L 179.188 83.563 L 177.215 85.231 L 176.721 87.125 L 173.088 89.2 L 172.729 90.327 L 173.088 92.672 L 172.595 94.07 L 170.576 95.378 L 168.737 98.625 L 168.782 99.256 L 168.468 100.158 L 168.199 100.879 L 168.289 101.736 L 169.231 103.134 L 168.962 106.336 L 167.526 107.057 L 167.078 108.005 L 167.347 108.681 L 169.904 107.824 L 172.191 105.885 L 172.057 105.479 L 171.294 105.118 L 170.935 103.901 L 171.563 102.548 L 172.729 101.33 L 177.349 100.113 L 179.726 100.564 L 179.906 102.413 L 180.848 103.585 L 180.489 106.426 L 181.207 107.554 L 183.673 109.042 L 184.705 111.702 L 181.207 115.581 L 181.341 116.302 L 181.7 116.888 L 183.27 117.069 L 184.481 118.286 L 185.154 120.541 L 187.486 122.345 L 188.114 123.382 L 187.8 124.78 L 188.114 125.998 L 187.082 127.035 L 185.826 127.847 L 184.75 129.831 L 183.808 130.056 L 180.937 129.831 L 179.906 130.913 L 180.623 131.86 L 182.328 132.401 L 182.597 133.168 L 182.956 135.062 L 184.301 135.784 L 185.961 135.874 L 187.979 138.309 L 188.159 139.211 L 186.948 140.023 L 186.185 140.879 L 186.185 142.007 L 185.423 144.171 L 186.454 146.516 L 186.454 147.328 L 186.634 147.599 L 187.935 149.493 L 191.433 150.575 L 193.721 151.793 L 195.246 151.477 L 197.847 150.936 L 198.879 150.214 L 199.641 150.395 L 200 151.522 L 199.821 153.822 L 197.488 157.159 L 197.488 158.692 L 198.026 159.955 L 197.668 160.361 L 197.432 159.865 L 196.535 159.752 L 196.143 159.977 L 196.098 160.451 L 193.945 161.759 L 192.24 163.653 L 192.106 165.321 L 191.029 165.547 L 190.491 165.998 L 189.46 165.817 L 188.697 166.855 L 188.742 167.621 L 188.787 168.162 L 188.428 168.839 L 186.275 169.29 L 183.943 172.943 L 184.571 173.529 L 185.423 173.439 L 185.782 173.799 L 185.154 175.107 L 184.571 175.468 L 183.629 175.287 L 182.821 175.964 L 181.969 175.784 L 181.476 176.55 L 180.937 176.46 L 180.085 177.497 L 178.291 177.272 L 177.215 177.858 L 176.721 179.076 L 176.183 179.436 L 175.959 179.256 L 176.138 178.625 L 175.959 178.309 L 174.882 178.534 L 173.178 177.497 L 172.684 177.632 L 172.326 177.948 L 173.357 178.489 L 173.447 178.805 L 173.268 179.076 L 172.729 178.985 L 172.012 179.481 L 171.473 178.985 L 171.294 178.489 L 170.576 178.129 L 170.576 177.452 L 169.231 177.272 L 168.603 176.189 L 163.445 176.46 L 163.445 175.468 L 163.265 174.386 L 162.951 172.988 L 161.92 172.988 L 159.677 173.98 L 157.793 173.844 L 157.793 172.943 L 159.587 172.401 L 159.587 171.545 L 158.825 170.417 L 158.107 169.966 L 157.793 170.327 L 157.614 171.995 L 157.165 172.401 L 156.492 171.86 L 154.519 172.492 L 154.25 172.762 L 155.192 173.709 L 154.34 174.16 L 151.828 174.386 L 150.796 174.566 L 150.482 174.025 L 150.662 172.852 L 149.944 172.041 L 146.894 172.762 L 144.472 171.454 L 143.126 170.778 L 142.274 170.147 L 139.762 170.823 L 135.053 174.386 L 133.079 177.091 L 129.625 178.129 L 128.908 178.76 L 126.441 181.15 L 125.813 180.97 L 124.961 182.097 L 124.961 182.458 L 125.813 182.458 L 125.992 182.277 L 125.948 187.554 L 125.903 189.538 L 126.172 193.777 L 127.203 194.634 L 127.697 194.994 L 128.414 196.663 L 128.684 197.339 L 128.325 197.655 L 127.473 197.43 L 125.992 196.483 L 123.525 196.663 L 120.206 198.467 L 118.233 199.684 L 114.555 198.377 L 112.312 198.647 L 110.608 200 L 109.442 199.775 L 108.006 197.835 L 105.45 197.114 L 105.091 196.573 L 105.091 195.265 L 103.835 194.228 L 100.606 193.687 L 99.305 194.634 L 97.69 192.244 L 96.479 191.973 L 94.909 192.604 L 94.236 190.665 L 89.392 190.079 L 88.63 189.899 L 87.06 189.538 L 86.387 190.079 L 85.894 191.973 L 84.907 193.461 L 83.786 193.506 L 82.44 193.1 L 81.139 192.785 L 80.332 193.1 L 79.749 192.424 L 78.897 192.649 L 77.865 192.469 L 75.308 193.777 L 74.411 193.641 L 72.841 191.297 L 72.617 191.026 L 70.868 190.846 L 69.702 190.304 L 67.414 191.116 L 66.562 190.846 L 65.62 191.612 L 63.826 189.448 L 62.929 188.681 L 62.391 187.373 L 61.763 187.012 L 59.251 187.373 L 55.394 185.84 L 54.317 185.299 L 52.613 185.569 L 51.491 186.156 L 50.908 185.93 L 50.639 185.479 L 50.998 184.803 L 51.76 184.171 L 51.85 181.511 L 50.908 180.519 L 49.518 180.699 L 48.307 181.33 L 46.513 179.842 L 45.212 178.534 L 45.84 177.948 L 46.513 177.497 L 47.006 177.632 L 49.294 175.017 L 50.011 173.98 L 50.908 171.545 L 50.549 170.688 L 52.299 165.186 L 54.138 153.1 L 54.272 152.334 L 54.766 149.808 L 55.752 149.357 L 57.008 149.312 L 57.367 148.681 L 55.618 146.336 L 55.304 146.246 L 54.003 149.042 L 53.913 149.493 L 53.644 149.538 L 53.465 148.591 L 55.035 134.386 L 55.483 128.839 L 56.066 127.892 L 56.336 127.711 L 56.784 128.072 L 56.784 129.109 L 59.341 131.003 L 61.135 133.078 L 61.852 135.693 L 62.615 138.805 L 63.647 140.699 L 64.768 140.474 L 63.467 138.038 L 62.391 133.258 L 62.077 131.995 L 60.058 128.749 L 55.214 125.366 L 54.003 125.998 L 53.779 123.833 L 54.452 122.796 L 54.945 122.21 L 54.855 121.353 L 55.214 121.037 L 55.573 121.353 L 56.156 120.541 L 56.066 116.302 L 54.676 114.679 L 54.272 114.679 L 54.272 113.596 L 54.945 112.514 L 55.752 112.153 L 55.304 110.53 L 53.824 110.846 L 53.824 111.387 L 53.061 111.026 L 52.478 110.395 L 51.94 110.936 L 48.755 109.087 L 47.455 108.501 L 44.853 106.742 L 44.001 104.171 L 39.381 98.985 L 39.695 98.083 L 40.861 96.55 L 41.355 94.656 L 42.566 94.746 L 41.758 93.258 L 39.874 92.311 L 38.394 92.041 L 38.26 91.905 L 39.202 91.454 L 39.022 89.56 L 39.785 88.884 L 42.7 89.019 L 46.602 90.868 L 47.365 90.688 L 41.265 87.892 L 39.56 88.253 L 37.811 89.741 L 36.376 88.884 L 35.12 89.38 L 34.044 88.749 L 33.864 88.568 L 34.268 87.982 L 34.088 87.26 L 33.236 86.584 L 33.864 85.998 L 34.627 85.727 L 34.941 84.961 L 34.268 84.194 L 35.255 83.743 L 35.927 83.653 L 35.255 83.247 L 33.595 83.067 L 32.922 82.435 L 31.801 83.923 L 30.41 83.923 L 29.738 84.014 L 28.257 82.525 L 29.02 82.255 L 30.949 82.21 L 31.173 81.578 L 30.949 80.902 L 30.321 80.902 L 29.917 80.947 L 28.93 80.361 L 27.988 80.947 L 27.405 80.361 L 27.046 80.541 L 27.405 82.074 L 25.342 81.849 L 25.163 81.669 L 24.893 82.39 L 25.252 84.104 L 24.535 84.239 L 24.041 81.218 L 23.324 80.451 L 23.862 79.594 L 24.31 79.324 L 24.176 78.918 L 23.772 78.602 L 22.561 79.865 L 21.305 79.324 L 21.619 78.918 L 21.619 78.377 L 21.35 78.106 L 20.677 78.467 L 20.318 78.963 L 19.735 78.737 L 18.524 76.979 L 15.743 77.069 L 16.551 76.032 L 15.429 75.581 L 15.026 76.753 L 13.949 76.573 L 13.007 74.814 L 12.514 74.273 L 11.976 74.047 L 11.438 74.408 L 11.707 75.445 L 10.854 75.581 L 10.002 74.634 L 10.361 73.596 L 10.271 73.371 L 9.913 73.371 L 9.419 74.453 L 9.464 74.994 L 9.105 75.175 L 8.791 74.904 L 8.388 75.175 L 8.612 76.212 L 7.849 76.437 L 5.786 76.122 L 5.517 75.896 L 6.1 74.589 L 5.786 73.732 L 3.454 71.612 L 0.179 71.026 L 0 70.846 L 0.673 69.944 L 5.696 69.402 L 6.279 69.944 L 7.132 69.718 L 7.76 68.32 L 7.132 66.922 L 5.427 66.156 L 4.485 66.697 L 3.723 67.644 L 3.454 67.734 L 3.185 65.93 L 2.332 65.75 L 2.108 65.209 L 2.601 64.713 L 3.095 64.081 L 3.947 64.893 L 5.427 65.118 L 5.876 65.479 L 8.881 64.893 L 8.971 64.622 L 7.401 64.262 L 7.311 63.45 L 5.338 63.766 L 5.158 63.63 L 6.414 62.909 L 8.253 62.187 L 7.849 61.826 L 2.781 63.134 L 0.493 63.63 L 0.179 63.405 L 0 63.224 L 0.449 62.187 L 0.359 59.662 L 1.211 58.985 L 2.601 58.579 L 3.185 58.038 L 4.261 58.219 L 4.396 58.038 L 3.723 57.407 L 4.396 57.091 L 5.696 57.091 L 6.549 56.234 L 7.266 56.099 L 7.49 56.911 L 8.567 56.64 L 8.881 56.821 L 9.733 55.964 L 11.258 55.964 L 11.886 55.333 L 12.514 55.242 L 12.918 56.821 L 13.59 56.46 L 14.218 57.272 L 17.179 55.603 L 17.403 56.099 L 17.896 56.234 L 18.793 55.152 L 18.345 53.529 L 19.735 52.492 L 20.408 52.627 L 20.857 53.348 L 22.202 52.807 L 23.458 52.627 L 23.682 52.807 L 23.682 53.619 L 24.041 53.619 L 25.477 52.582 L 25.835 52.762 L 25.925 53.439 L 26.643 53.348 L 26.957 53.619 L 26.867 54.25 L 27.405 54.566 L 27.809 54.295 L 28.661 56.054 L 29.738 57.317 L 29.738 58.219 L 31.263 59.256 L 31.442 60.113 L 31.711 60.383 L 32.384 59.662 L 34.896 57.497 L 34.896 57.091 L 35.12 56.911 L 35.658 57.272 L 37.273 56.415 L 37.901 56.821 L 37.901 57.272 L 37.452 57.768 L 37.542 58.038 L 38.574 57.587 L 38.753 58.399 L 39.202 58.625 L 39.605 58.399 L 39.874 57.587 L 41.175 57.678 L 42.027 59.256 L 42.386 59.076 L 42.117 57.272 L 43.059 56.46 L 44.36 56.099 L 44.629 56.46 L 44.36 57.587 L 44.853 58.038 L 48.217 58.219 L 49.473 58.805 L 50.37 57.948 L 50.908 57.948 L 51.177 57.587 L 50.998 57.136 L 50.37 56.911 L 48.845 54.386 L 47.993 52.492 L 48.397 51.184 L 48.845 51.003 L 48.755 48.839 L 47.993 47.892 L 47.858 44.69 L 44.853 40.722 L 44.091 37.339 L 44.36 35.851 L 43.014 33.326 L 43.552 32.92 L 45.705 33.596 L 47.006 33.957 L 48.038 34.453 L 49.338 34.228 L 50.011 33.326 L 52.882 33.777 L 53.42 34.994 L 53.33 35.941 L 52.792 36.483 L 53.779 39.324 L 54.317 40.451 L 54.183 41.488 L 54.945 41.669 L 55.752 40.451 L 57.008 39.955 L 61.763 41.263 L 65.216 41.082 L 68.85 42.345 L 70.016 41.984 L 70.688 42.12 L 75.308 39.098 L 76.564 38.557 L 77.282 38.286 L 76.295 37.79 L 73.38 37.61 L 72.976 36.798 L 74.77 32.74 L 76.026 32.153 L 78.358 29.989 L 81.767 28.32 L 84.458 27.914 L 89.303 25.93 L 91.769 23.45 L 92.667 22.503 L 94.057 20.474 L 96.12 21.15 L 96.389 21.06 L 96.389 20.699 L 94.147 18.309 L 94.371 17.136 L 94.909 16.821 L 94.326 15.513 L 94.819 12.762 L 94.236 11.95 L 94.371 7.621 L 93.967 5.817 L 97.152 3.202 L 101.458 1.849 L 105.764 0.676 L 107.154 0 L 108.096 0.992 Z  M 128.92 16.3 L 129.2 17.13 L 130.72 17.68 L 130.12 20.42 L 131.27 21.07 L 130.58 22.06 L 130.83 24.24 L 133.93 24.54 L 136.35 24.74 L 139.33 24.16 L 140.38 23.1 L 140.79 23.99 L 141.32 24.71 L 141.19 25.45 L 142.28 27.1 L 144.28 27.25 L 146.69 29.25 L 148.34 29.79 L 148.35 29.8 L 148.35 30.93 L 150.55 31.41 L 152.11 34.05 L 155.46 33.08 L 155.9 32.44 L 157.2 32.44 L 160.75 34.06 L 162.49 33.6 L 163.76 32.42 L 165.83 33.29 L 166.09 33.29 L 170.07 38.28 L 173.16 39.71 L 174.05 38.51 L 174.85 38.59 L 176.12 40.07 L 179.43 39.61 L 180.9 39.61 L 182.47 38.68 L 183.02 38.82 L 186.08 40.78 L 191.13 40.3 L 192.59 40.69 L 192.75 40.81 L 190.95 44.63 L 188.18 48.28 L 187.92 51.56 L 187.31 55.98 L 186.28 59.71 L 186.39 60.88 L 186.65 64.45 L 185.87 68.89 L 186.37 71.15 L 187.17 72.15 L 186.12 73.59 L 186.07 74.11 L 185.24 74.43 L 183.66 74.61 L 182.84 73.66 L 180.51 74.01 L 178.71 75.09 L 177.44 78.17 L 178.22 80.26 L 179.2 80.08 L 177.94 81.96 L 177.8 82.77 L 175.88 84.39 L 175.43 86.14 L 171.84 88.19 L 171.19 90.21 L 171.55 92.53 L 171.35 93.09 L 169.45 94.32 L 167.21 98.28 L 167.26 99.05 L 167.06 99.65 L 166.67 100.69 L 166.84 102.26 L 167.69 103.53 L 167.54 105.37 L 166.39 105.95 L 165.44 107.95 L 166.48 110.55 L 170.65 109.15 L 173.93 106.37 L 173.28 104.4 L 172.54 104.05 L 172.53 104.02 L 172.82 103.41 L 173.52 102.67 L 177.4 101.65 L 178.34 101.83 L 178.46 103 L 179.28 104.03 L 178.93 106.78 L 180.13 108.66 L 182.46 110.06 L 182.97 111.38 L 179.6 115.13 L 179.92 116.85 L 180.8 118.3 L 182.58 118.5 L 183.15 119.08 L 183.85 121.43 L 186.35 123.36 L 186.52 123.64 L 186.26 124.8 L 186.45 125.55 L 186.13 125.86 L 184.69 126.79 L 183.75 128.53 L 183.69 128.54 L 180.34 128.28 L 177.94 130.8 L 179.72 133.15 L 181.15 133.6 L 181.62 136.05 L 183.89 137.26 L 185.22 137.34 L 186.31 138.64 L 185.95 138.88 L 184.69 140.31 L 184.69 141.75 L 183.81 144.23 L 184.95 146.83 L 184.95 147.78 L 185.39 148.44 L 186.99 150.77 L 190.85 151.97 L 193.49 153.37 L 195.55 152.95 L 198.43 152.35 L 198.36 153.3 L 195.99 156.69 L 195.99 158.34 L 194.72 159.06 L 194.68 159.56 L 192.98 160.59 L 190.79 163.03 L 190.7 164.08 L 190.35 164.16 L 190.06 164.4 L 188.8 164.18 L 187.17 166.4 L 187.24 167.56 L 185.35 167.95 L 182.01 173.19 L 182.85 173.98 L 182.42 174.35 L 181.27 174.1 L 180.75 174.91 L 180.33 174.84 L 179.45 175.91 L 178 175.72 L 176.13 176.74 L 175.16 176.94 L 173.41 175.88 L 172.08 176.24 L 172.08 176.14 L 170.16 175.88 L 169.44 174.64 L 164.87 174.88 L 164.74 174.1 L 164.15 171.49 L 161.6 171.49 L 161.09 171.72 L 161.09 171.08 L 159.89 169.32 L 157.82 168.01 L 156.35 169.7 L 156.28 170.35 L 153.71 171.17 L 152.2 172.69 L 152.13 172.76 L 152.19 172.81 L 152.22 172.84 L 152.18 172.85 L 152.19 172.81 L 152.2 172.69 L 152.25 172.38 L 150.47 170.37 L 147.1 171.17 L 145.17 170.12 L 143.92 169.5 L 142.58 168.51 L 139.09 169.45 L 133.97 173.32 L 132.16 175.8 L 128.88 176.79 L 127.89 177.66 L 126.02 179.47 L 125.24 179.24 L 123.46 181.59 L 123.46 183.96 L 124.48 183.96 L 124.45 187.53 L 124.4 189.57 L 124.72 194.52 L 125.33 195.03 L 123.09 195.19 L 119.45 197.17 L 118.06 198.03 L 114.73 196.85 L 111.71 197.21 L 110.26 198.36 L 108.91 196.53 L 106.59 195.88 L 106.59 194.56 L 104.48 192.81 L 100.23 192.1 L 99.68 192.51 L 98.6 190.91 L 96.35 190.41 L 95.81 190.63 L 95.35 189.29 L 89.66 188.6 L 88.97 188.44 L 86.69 187.91 L 85.06 189.22 L 84.51 191.35 L 84.08 191.99 L 83.98 192 L 82.83 191.65 L 81.03 191.22 L 80.77 191.32 L 80.27 190.73 L 78.83 191.12 L 77.63 190.9 L 75.21 192.14 L 74.05 190.4 L 73.38 189.6 L 71.27 189.38 L 69.78 188.69 L 67.39 189.53 L 66.24 189.17 L 65.83 189.51 L 64.9 188.39 L 64.18 187.78 L 63.58 186.33 L 62.06 185.45 L 59.43 185.83 L 56.01 184.47 L 54.56 183.74 L 53.27 183.95 L 53.37 180.93 L 51.47 178.93 L 49.06 179.25 L 48.5 179.54 L 47.82 178.98 L 50.48 175.94 L 51.35 174.68 L 52.52 171.51 L 52.15 170.62 L 53.76 165.53 L 55.62 153.34 L 55.75 152.61 L 56.09 150.85 L 56.1 150.85 L 57.9 150.78 L 59.16 148.57 L 56.52 145.03 L 55.4 144.71 L 56.53 134.53 L 56.81 131 L 58.31 132.11 L 59.78 133.8 L 60.4 136.07 L 61.2 139.35 L 62.86 142.39 L 67.04 141.55 L 64.89 137.51 L 63.85 132.91 L 63.48 131.4 L 61.17 127.7 L 55.59 123.8 L 55.66 123.69 L 55.79 123.54 L 55.83 123.57 L 56.21 123.03 L 56.5 122.64 L 57.67 121.01 L 57.55 115.73 L 55.91 113.81 L 55.98 113.7 L 57.54 113 L 56.37 108.77 L 53.57 109.37 L 52.52 108.23 L 51.69 109.06 L 49.44 107.75 L 48.19 107.19 L 46.12 105.79 L 45.33 103.41 L 41.12 98.68 L 42.24 97.22 L 42.49 96.24 L 45.19 96.45 L 42.85 92.13 L 40.67 91.03 L 40.61 90.42 L 42.33 90.5 L 46.44 92.45 L 51.96 91.14 L 41.44 86.32 L 38.88 86.86 L 37.66 87.9 L 36.51 87.22 L 35.7 87.54 L 35.57 86.99 L 35.76 86.92 L 36.51 85.09 L 40.36 84.57 L 35.75 81.79 L 34.26 81.63 L 32.73 80.2 L 32.43 80.6 L 32.03 79.4 L 30.25 79.4 L 28.91 78.61 L 28.21 79.04 L 27.7 78.53 L 25.92 79.43 L 25.46 78.02 L 23.63 76.59 L 22.81 77.44 L 21.63 76.26 L 20.33 76.95 L 19.29 75.45 L 18.89 75.47 L 18.96 75.38 L 14.52 73.6 L 14.34 74.13 L 14.24 73.94 L 13.4 73.02 L 11.81 72.35 L 11.55 72.53 L 11.29 71.87 L 8.95 71.87 L 8.21 73.49 L 7.47 73.98 L 7.07 72.87 L 5 70.99 L 5.18 70.97 L 5.86 71.61 L 8.21 70.99 L 9.4 68.32 L 8.58 66.48 L 10.03 66.2 L 10.91 63.53 L 9.67 63.24 L 11.07 62.69 L 8.25 60.17 L 2.43 61.67 L 1.94 61.78 L 1.88 60.37 L 1.91 60.34 L 3.36 59.92 L 3.66 59.64 L 4.92 59.85 L 5.85 58.59 L 6.32 58.59 L 6.38 58.53 L 6.43 58.72 L 8.35 58.24 L 9.13 58.7 L 10.36 57.46 L 11.53 57.46 L 11.94 59.05 L 13.18 58.38 L 13.83 59.22 L 16.86 57.51 L 18.43 57.94 L 20.45 55.51 L 20.35 55.17 L 22.18 54.43 L 22.18 55.12 L 24.53 55.12 L 24.63 55.05 L 24.63 55.11 L 25.24 55.04 L 27 56.07 L 27.4 56.88 L 28.24 57.87 L 28.24 59.01 L 29.92 60.16 L 30.06 60.86 L 31.75 62.55 L 33.43 60.74 L 35.49 58.96 L 35.57 59.02 L 36.18 58.69 L 36.64 60.07 L 37.76 59.58 L 39.24 60.32 L 40.51 59.61 L 41.4 61.25 L 44.03 59.93 L 43.92 59.22 L 44.24 59.51 L 47.85 59.7 L 49.77 60.6 L 50.97 59.45 L 51.66 59.45 L 52.88 57.81 L 52.14 55.95 L 51.38 55.68 L 50.18 53.69 L 49.59 52.39 L 49.62 52.31 L 50.39 52 L 50.23 48.28 L 49.47 47.34 L 49.34 44.16 L 46.24 40.07 L 45.62 37.31 L 45.93 35.61 L 45.68 35.15 L 46.48 35.37 L 47.82 36.01 L 50.18 35.6 L 50.67 34.95 L 51.84 35.13 L 51.89 35.24 L 51.89 35.26 L 51.07 36.09 L 52.39 39.89 L 52.77 40.7 L 52.52 42.64 L 55.62 43.37 L 56.74 41.67 L 57.09 41.53 L 61.6 42.77 L 65 42.6 L 68.82 43.92 L 70.09 43.53 L 71 43.71 L 76.02 40.42 L 77.13 39.95 L 81.01 38.48 L 76.69 36.31 L 74.88 36.2 L 75.91 33.86 L 76.87 33.41 L 79.22 31.24 L 82.22 29.77 L 84.86 29.37 L 90.15 27.2 L 92.85 24.49 L 93.84 23.45 L 94.66 22.25 L 96.13 22.73 L 97.89 22.14 L 97.89 20.11 L 95.9 17.98 L 96.83 17.44 L 95.88 15.32 L 96.41 12.4 L 95.75 11.49 L 95.88 7.48 L 95.63 6.39 L 97.88 4.55 L 101.88 3.29 L 106.29 2.09 L 106.8 1.84 L 107.29 3.33 L 107.52 5.84 L 109.68 7.19 L 110.47 8.33 L 112.29 9.11 L 113.74 8.72 L 115.61 7.32 L 117.09 9.27 L 117.53 11.87 L 120.29 13.8 L 121.75 13.29 L 123.17 14.23 L 123.13 15.21 L 124 16.73 L 128.92 16.3 Z  M 55.79 123.54 L 56.21 123.03 L 56.5 122.69 L 56.5 122.64" fill-rule="evenodd" />
    <g>
        <path d=" M 120.313 153.063 C 120.313 147.543 124.793 143.063 130.313 143.063 C 135.832 143.063 140.313 147.543 140.313 153.063 C 140.313 158.582 135.832 163.063 130.313 163.063 C 124.793 163.063 120.313 158.582 120.313 153.063 Z " fill="rgb(75,160,78)" fill-opacity="0.25" />
        <path d=" M 126.313 153.063 C 126.313 150.855 128.105 149.063 130.313 149.063 C 132.52 149.063 134.313 150.855 134.313 153.063 C 134.313 155.27 132.52 157.063 130.313 157.063 C 128.105 157.063 126.313 155.27 126.313 153.063 Z " fill="rgb(75,160,78)" fill-opacity="0.5" />
        <path d=" M 127.813 153.063 C 127.813 151.683 128.933 150.563 130.313 150.563 C 131.692 150.563 132.813 151.683 132.813 153.063 C 132.813 154.442 131.692 155.563 130.313 155.563 C 128.933 155.563 127.813 154.442 127.813 153.063 Z " fill="rgb(75,160,78)" />
    </g>
</svg>
